<svg width="20" height="20" viewBox="0 0 20 20" fill="none" xmlns="http://www.w3.org/2000/svg">
<g clip-path="url(#clip0_67_5882)">
<path d="M7.4996 15V15.625C7.4996 16.288 7.76299 16.9239 8.23183 17.3927C8.70067 17.8616 9.33656 18.125 9.9996 18.125C10.6626 18.125 11.2985 17.8616 11.7674 17.3927C12.2362 16.9239 12.4996 16.288 12.4996 15.625V15M4.39046 8.12495C4.38943 7.38371 4.53511 6.64959 4.81912 5.96491C5.10313 5.28024 5.51984 4.65854 6.04524 4.13567C6.57064 3.61279 7.19433 3.19907 7.88036 2.91837C8.5664 2.63766 9.30121 2.49551 10.0424 2.50011C13.1354 2.5231 15.6094 5.09396 15.6094 8.19557V8.74995C15.6094 11.548 16.1948 13.1717 16.7104 14.0592C16.7659 14.154 16.7955 14.2618 16.7961 14.3717C16.7966 14.4816 16.7682 14.5897 16.7137 14.6851C16.6592 14.7805 16.5805 14.8599 16.4855 14.9151C16.3905 14.9704 16.2826 14.9997 16.1727 15H3.82645C3.71654 14.9997 3.60865 14.9704 3.51367 14.9151C3.41868 14.8598 3.33996 14.7805 3.28544 14.685C3.23092 14.5896 3.20253 14.4815 3.20313 14.3716C3.20374 14.2617 3.23332 14.1539 3.28889 14.059C3.80478 13.1716 4.39046 11.5479 4.39046 8.74995L4.39046 8.12495Z" stroke="black" stroke-width="1.5" stroke-linecap="round" stroke-linejoin="round"/>
<circle cx="13.5" cy="3.5" r="2.9" fill="#FF0000" stroke="black" stroke-width="1.2"/>
</g>
<defs>
<clipPath id="clip0_67_5882">
<rect width="20" height="20" fill="white"/>
</clipPath>
</defs>
</svg>
