<svg width="525" height="571" viewBox="0 0 525 571" fill="none" xmlns="http://www.w3.org/2000/svg">
<rect width="525" height="571" rx="10" fill="black" fill-opacity="0.6"/>
<rect width="525" height="571" rx="10" fill="url(#paint0_linear_103_5042)" fill-opacity="0.1"/>
<rect width="525" height="571" rx="10" fill="url(#paint1_radial_103_5042)" fill-opacity="0.6"/>
<path d="M76.066 118.995C76.1377 118.926 76.1948 118.843 76.2342 118.752C76.2735 118.66 76.2943 118.562 76.2952 118.462C76.2961 118.363 76.2772 118.264 76.2395 118.172C76.2018 118.079 76.1462 117.996 76.0758 117.925C76.0054 117.855 75.9217 117.799 75.8295 117.761C75.7374 117.724 75.6386 117.705 75.5391 117.705C75.4395 117.706 75.341 117.727 75.2495 117.766C75.158 117.805 75.0752 117.862 75.006 117.934L72 120.939L68.995 117.934C68.9263 117.86 68.8435 117.801 68.7515 117.76C68.6595 117.719 68.5602 117.697 68.4595 117.695C68.3588 117.694 68.2588 117.712 68.1654 117.75C68.072 117.788 67.9872 117.844 67.916 117.915C67.8447 117.986 67.7886 118.071 67.7509 118.164C67.7132 118.258 67.6946 118.358 67.6964 118.459C67.6982 118.559 67.7202 118.659 67.7612 118.751C67.8022 118.843 67.8613 118.925 67.935 118.994L70.938 122L67.933 125.005C67.8005 125.147 67.7284 125.335 67.7318 125.53C67.7353 125.724 67.814 125.909 67.9514 126.047C68.0888 126.184 68.2742 126.263 68.4685 126.266C68.6628 126.27 68.8508 126.197 68.993 126.065L72 123.06L75.005 126.066C75.1472 126.198 75.3352 126.271 75.5295 126.267C75.7238 126.264 75.9092 126.185 76.0466 126.048C76.184 125.91 76.2627 125.725 76.2662 125.531C76.2696 125.336 76.1975 125.148 76.065 125.006L73.062 122L76.066 118.995Z" fill="black"/>
<defs>
<linearGradient id="paint0_linear_103_5042" x1="262.5" y1="0" x2="262.5" y2="571" gradientUnits="userSpaceOnUse">
<stop stop-color="#22D7FF" stop-opacity="0.3"/>
<stop offset="1" stop-color="#262149" stop-opacity="0"/>
</linearGradient>
<radialGradient id="paint1_radial_103_5042" cx="0" cy="0" r="1" gradientUnits="userSpaceOnUse" gradientTransform="translate(338.927 612.635) rotate(89.648) scale(493.569 278.792)">
<stop stop-color="#2A90A9"/>
<stop offset="1" stop-color="#262149" stop-opacity="0"/>
</radialGradient>
</defs>
</svg>
