<svg width="14" height="14" viewBox="0 0 14 14" fill="none" xmlns="http://www.w3.org/2000/svg">
<path d="M3 4H4M4 4H12M4 4V11C4 11.2652 4.10536 11.5196 4.29289 11.7071C4.48043 11.8946 4.73478 12 5 12H10C10.2652 12 10.5196 11.8946 10.7071 11.7071C10.8946 11.5196 11 11.2652 11 11V4M5.5 4V3C5.5 2.73478 5.60536 2.48043 5.79289 2.29289C5.98043 2.10536 6.23478 2 6.5 2H8.5C8.76522 2 9.01957 2.10536 9.20711 2.29289C9.39464 2.48043 9.5 2.73478 9.5 3V4M6.5 6.5V9.5M8.5 6.5V9.5" stroke="#FF0000" stroke-width="1.1" stroke-linecap="round" stroke-linejoin="round"/>
</svg>
