<svg width="33" height="37" viewBox="0 0 33 37" fill="none" xmlns="http://www.w3.org/2000/svg">
<path d="M1.57129 8.09521H4.90462H31.5713" stroke="#00BEEC" stroke-width="2.5" stroke-linecap="round" stroke-linejoin="round"/>
<path d="M28.2381 8.09513V31.4285C28.2381 32.3125 27.8869 33.1604 27.2618 33.7855C26.6367 34.4106 25.7888 34.7618 24.9048 34.7618H8.23812C7.35406 34.7618 6.50622 34.4106 5.8811 33.7855C5.25597 33.1604 4.90479 32.3125 4.90479 31.4285V8.09513M9.90479 8.09513V4.7618C9.90479 3.87775 10.256 3.0299 10.8811 2.40478C11.5062 1.77966 12.3541 1.42847 13.2381 1.42847H19.9048C20.7888 1.42847 21.6367 1.77966 22.2618 2.40478C22.8869 3.0299 23.2381 3.87775 23.2381 4.7618V8.09513" stroke="#00BEEC" stroke-width="2.5" stroke-linecap="round" stroke-linejoin="round"/>
<path d="M13.2378 16.4285V26.4285" stroke="#00BEEC" stroke-width="2.5" stroke-linecap="round" stroke-linejoin="round"/>
<path d="M19.9048 16.4285V26.4285" stroke="#00BEEC" stroke-width="2.5" stroke-linecap="round" stroke-linejoin="round"/>
</svg>
