<svg width="14" height="15" viewBox="0 0 14 15" fill="none" xmlns="http://www.w3.org/2000/svg">
<path d="M10.6748 3.75947H9.62476V3.23447C9.62476 3.09523 9.56944 2.9617 9.47099 2.86324C9.37253 2.76478 9.239 2.70947 9.09976 2.70947C8.96052 2.70947 8.82698 2.76478 8.72853 2.86324C8.63007 2.9617 8.57476 3.09523 8.57476 3.23447V3.75947H5.42476V3.23447C5.42476 3.09523 5.36944 2.9617 5.27099 2.86324C5.17253 2.76478 5.03899 2.70947 4.89976 2.70947C4.76052 2.70947 4.62698 2.76478 4.52853 2.86324C4.43007 2.9617 4.37476 3.09523 4.37476 3.23447V3.75947H3.32476C2.90704 3.75947 2.50643 3.92541 2.21106 4.22078C1.91569 4.51615 1.74976 4.91676 1.74976 5.33447V11.6345C1.74976 12.0522 1.91569 12.4528 2.21106 12.7482C2.50643 13.0435 2.90704 13.2095 3.32476 13.2095H10.6748C11.0925 13.2095 11.4931 13.0435 11.7885 12.7482C12.0838 12.4528 12.2498 12.0522 12.2498 11.6345V5.33447C12.2498 4.91676 12.0838 4.51615 11.7885 4.22078C11.4931 3.92541 11.0925 3.75947 10.6748 3.75947ZM11.1998 11.6345C11.1998 11.7737 11.1444 11.9072 11.046 12.0057C10.9475 12.1042 10.814 12.1595 10.6748 12.1595H3.32476C3.18552 12.1595 3.05198 12.1042 2.95352 12.0057C2.85507 11.9072 2.79976 11.7737 2.79976 11.6345V7.95947H11.1998V11.6345ZM11.1998 6.90947H2.79976V5.33447C2.79976 5.19523 2.85507 5.0617 2.95352 4.96324C3.05198 4.86479 3.18552 4.80947 3.32476 4.80947H4.37476V5.33447C4.37476 5.47371 4.43007 5.60725 4.52853 5.7057C4.62698 5.80416 4.76052 5.85947 4.89976 5.85947C5.03899 5.85947 5.17253 5.80416 5.27099 5.7057C5.36944 5.60725 5.42476 5.47371 5.42476 5.33447V4.80947H8.57476V5.33447C8.57476 5.47371 8.63007 5.60725 8.72853 5.7057C8.82698 5.80416 8.96052 5.85947 9.09976 5.85947C9.239 5.85947 9.37253 5.80416 9.47099 5.7057C9.56944 5.60725 9.62476 5.47371 9.62476 5.33447V4.80947H10.6748C10.814 4.80947 10.9475 4.86479 11.046 4.96324C11.1444 5.0617 11.1998 5.19523 11.1998 5.33447V6.90947Z" fill="white" fill-opacity="0.6"/>
</svg>
