<svg width="14" height="15" viewBox="0 0 14 15" fill="none" xmlns="http://www.w3.org/2000/svg">
<path d="M11.0837 2.83341H9.91699V2.25008C9.91699 2.09537 9.85553 1.947 9.74614 1.8376C9.63674 1.72821 9.48837 1.66675 9.33366 1.66675C9.17895 1.66675 9.03058 1.72821 8.92118 1.8376C8.81178 1.947 8.75033 2.09537 8.75033 2.25008V2.83341H5.25033V2.25008C5.25033 2.09537 5.18887 1.947 5.07947 1.8376C4.97007 1.72821 4.8217 1.66675 4.66699 1.66675C4.51228 1.66675 4.36391 1.72821 4.25451 1.8376C4.14512 1.947 4.08366 2.09537 4.08366 2.25008V2.83341H2.91699C2.45286 2.83341 2.00774 3.01779 1.67956 3.34598C1.35137 3.67417 1.16699 4.11929 1.16699 4.58341V11.5834C1.16699 12.0475 1.35137 12.4927 1.67956 12.8209C2.00774 13.149 2.45286 13.3334 2.91699 13.3334H11.0837C11.5478 13.3334 11.9929 13.149 12.3211 12.8209C12.6493 12.4927 12.8337 12.0475 12.8337 11.5834V4.58341C12.8337 4.11929 12.6493 3.67417 12.3211 3.34598C11.9929 3.01779 11.5478 2.83341 11.0837 2.83341ZM11.667 11.5834C11.667 11.7381 11.6055 11.8865 11.4961 11.9959C11.3867 12.1053 11.2384 12.1667 11.0837 12.1667H2.91699C2.76228 12.1667 2.61391 12.1053 2.50451 11.9959C2.39512 11.8865 2.33366 11.7381 2.33366 11.5834V7.50008H11.667V11.5834ZM11.667 6.33341H2.33366V4.58341C2.33366 4.4287 2.39512 4.28033 2.50451 4.17094C2.61391 4.06154 2.76228 4.00008 2.91699 4.00008H4.08366V4.58341C4.08366 4.73812 4.14512 4.8865 4.25451 4.99589C4.36391 5.10529 4.51228 5.16675 4.66699 5.16675C4.8217 5.16675 4.97007 5.10529 5.07947 4.99589C5.18887 4.8865 5.25033 4.73812 5.25033 4.58341V4.00008H8.75033V4.58341C8.75033 4.73812 8.81178 4.8865 8.92118 4.99589C9.03058 5.10529 9.17895 5.16675 9.33366 5.16675C9.48837 5.16675 9.63674 5.10529 9.74614 4.99589C9.85553 4.8865 9.91699 4.73812 9.91699 4.58341V4.00008H11.0837C11.2384 4.00008 11.3867 4.06154 11.4961 4.17094C11.6055 4.28033 11.667 4.4287 11.667 4.58341V6.33341Z" fill="#00BEEC"/>
</svg>
