<svg width="22" height="19" viewBox="0 0 22 19" fill="none" xmlns="http://www.w3.org/2000/svg">
<path fill-rule="evenodd" clip-rule="evenodd" d="M8.944 0.886353H13.056C14.894 0.886353 16.35 0.886353 17.489 1.03935C18.661 1.19735 19.61 1.52935 20.359 2.27735C21.107 3.02635 21.439 3.97535 21.597 5.14735C21.687 5.82035 21.724 6.60335 21.739 7.51035C21.7514 7.58643 21.7528 7.66389 21.743 7.74035C21.749 8.30569 21.7513 8.91902 21.75 9.58035V9.69235C21.75 11.5304 21.75 12.9864 21.597 14.1254C21.439 15.2974 21.107 16.2464 20.359 16.9954C19.61 17.7434 18.661 18.0754 17.489 18.2334C16.349 18.3864 14.894 18.3864 13.056 18.3864H8.944C7.106 18.3864 5.65 18.3864 4.511 18.2334C3.339 18.0754 2.39 17.7434 1.641 16.9954C0.892997 16.2464 0.560997 15.2974 0.402997 14.1254C0.249997 12.9854 0.249997 11.5304 0.249997 9.69235V9.58035C0.248664 8.91902 0.250997 8.30569 0.256997 7.74035C0.246913 7.66394 0.247923 7.58647 0.259997 7.51035C0.275997 6.60335 0.312997 5.82035 0.402997 5.14735C0.560997 3.97535 0.892997 3.02635 1.641 2.27735C2.39 1.52935 3.339 1.19735 4.511 1.03935C5.651 0.886353 7.106 0.886353 8.944 0.886353ZM1.752 8.38635C1.75066 8.77435 1.75 9.19102 1.75 9.63635C1.75 11.5434 1.752 12.8984 1.89 13.9264C2.025 14.9314 2.279 15.5114 2.702 15.9344C3.125 16.3574 3.705 16.6114 4.711 16.7464C5.739 16.8844 7.093 16.8864 9 16.8864H13C14.907 16.8864 16.262 16.8844 17.29 16.7464C18.295 16.6114 18.875 16.3574 19.298 15.9344C19.721 15.5114 19.975 14.9314 20.11 13.9254C20.248 12.8974 20.25 11.5434 20.25 9.63635C20.25 9.19102 20.2493 8.77435 20.248 8.38635H1.752ZM20.224 6.88635H1.776C1.796 6.29935 1.83 5.79235 1.89 5.34635C2.025 4.34135 2.279 3.76135 2.702 3.33835C3.125 2.91535 3.705 2.66135 4.711 2.52635C5.739 2.38835 7.093 2.38635 9 2.38635H13C14.907 2.38635 16.262 2.38835 17.29 2.52635C18.295 2.66135 18.875 2.91535 19.298 3.33835C19.721 3.76135 19.975 4.34135 20.11 5.34735C20.17 5.79235 20.204 6.29935 20.224 6.88635ZM4.25 13.6364C4.25 13.4374 4.32902 13.2467 4.46967 13.106C4.61032 12.9654 4.80109 12.8864 5 12.8864H9C9.19891 12.8864 9.38967 12.9654 9.53033 13.106C9.67098 13.2467 9.75 13.4374 9.75 13.6364C9.75 13.8353 9.67098 14.026 9.53033 14.1667C9.38967 14.3073 9.19891 14.3864 9 14.3864H5C4.80109 14.3864 4.61032 14.3073 4.46967 14.1667C4.32902 14.026 4.25 13.8353 4.25 13.6364ZM10.75 13.6364C10.75 13.4374 10.829 13.2467 10.9697 13.106C11.1103 12.9654 11.3011 12.8864 11.5 12.8864H13C13.1989 12.8864 13.3897 12.9654 13.5303 13.106C13.671 13.2467 13.75 13.4374 13.75 13.6364C13.75 13.8353 13.671 14.026 13.5303 14.1667C13.3897 14.3073 13.1989 14.3864 13 14.3864H11.5C11.3011 14.3864 11.1103 14.3073 10.9697 14.1667C10.829 14.026 10.75 13.8353 10.75 13.6364Z" fill="white"/>
</svg>
