<svg width="23" height="20" viewBox="0 0 23 20" fill="none" xmlns="http://www.w3.org/2000/svg">
<path d="M4.35235 4.70588C4.35235 3.92583 4.66223 3.17773 5.2138 2.62616C5.76538 2.07458 6.51348 1.76471 7.29353 1.76471C8.07358 1.76471 8.82168 2.07458 9.37326 2.62616C9.92483 3.17773 10.2347 3.92583 10.2347 4.70588C10.2347 5.48593 9.92483 6.23403 9.37326 6.78561C8.82168 7.33719 8.07358 7.64706 7.29353 7.64706C6.51348 7.64706 5.76538 7.33719 5.2138 6.78561C4.66223 6.23403 4.35235 5.48593 4.35235 4.70588ZM7.29353 0C6.04545 0 4.84849 0.495797 3.96597 1.37832C3.08344 2.26084 2.58765 3.4578 2.58765 4.70588C2.58765 5.95396 3.08344 7.15092 3.96597 8.03344C4.84849 8.91597 6.04545 9.41177 7.29353 9.41177C8.54161 9.41177 9.73857 8.91597 10.6211 8.03344C11.5036 7.15092 11.9994 5.95396 11.9994 4.70588C11.9994 3.4578 11.5036 2.26084 10.6211 1.37832C9.73857 0.495797 8.54161 0 7.29353 0ZM16.1171 5.88235C16.1171 5.41432 16.303 4.96546 16.6339 4.63452C16.9649 4.30357 17.4137 4.11765 17.8818 4.11765C18.3498 4.11765 18.7987 4.30357 19.1296 4.63452C19.4605 4.96546 19.6465 5.41432 19.6465 5.88235C19.6465 6.35038 19.4605 6.79924 19.1296 7.13019C18.7987 7.46114 18.3498 7.64706 17.8818 7.64706C17.4137 7.64706 16.9649 7.46114 16.6339 7.13019C16.303 6.79924 16.1171 6.35038 16.1171 5.88235ZM17.8818 2.35294C16.9457 2.35294 16.048 2.72479 15.3861 3.38668C14.7242 4.04858 14.3524 4.94629 14.3524 5.88235C14.3524 6.81841 14.7242 7.71613 15.3861 8.37803C16.048 9.03992 16.9457 9.41177 17.8818 9.41177C18.8178 9.41177 19.7155 9.03992 20.3774 8.37803C21.0393 7.71613 21.4112 6.81841 21.4112 5.88235C21.4112 4.94629 21.0393 4.04858 20.3774 3.38668C19.7155 2.72479 18.8178 2.35294 17.8818 2.35294ZM14.6441 17.6918C15.4712 18.0271 16.5312 18.2353 17.8829 18.2353C20.5676 18.2353 22.1018 17.4153 22.9382 16.4024C23.3441 15.9106 23.55 15.4141 23.6559 15.0341C23.7165 14.814 23.7532 14.588 23.7653 14.36V14.3282C23.765 13.6484 23.4948 12.9966 23.0141 12.5159C22.5334 12.0352 21.8816 11.765 21.2018 11.7647H14.5641C14.5312 11.7647 14.499 11.7655 14.4676 11.7671C14.9312 12.2494 15.2676 12.8553 15.4276 13.5294H21.2018C21.6394 13.5294 21.9947 13.8812 22.0006 14.3165L21.9971 14.3541C21.9924 14.3996 21.9778 14.4702 21.9535 14.5659C21.8808 14.8275 21.7524 15.0703 21.5771 15.2776C21.1653 15.7788 20.1982 16.4706 17.8829 16.4706C16.73 16.4706 15.9112 16.2988 15.33 16.0647C15.2029 16.5353 14.9935 17.1035 14.6441 17.6918ZM2.88177 11.7647C2.17972 11.7647 1.50643 12.0436 1.01001 12.54C0.513593 13.0364 0.234707 13.7097 0.234707 14.4118V14.7388C0.235939 14.8206 0.241437 14.9023 0.251177 14.9835C0.348964 15.8588 0.663561 16.6958 1.16647 17.4188C2.12882 18.7929 3.96647 20 7.29353 20C10.6206 20 12.4582 18.7941 13.4206 17.4176C13.9235 16.6947 14.2381 15.8576 14.3359 14.9824C14.3442 14.9014 14.3497 14.8202 14.3524 14.7388V14.4118C14.3524 13.7097 14.0735 13.0364 13.577 12.54C13.0806 12.0436 12.4073 11.7647 11.7053 11.7647H2.88177ZM1.99941 14.7141V14.4118C1.99941 14.1778 2.09237 13.9533 2.25785 13.7878C2.42332 13.6224 2.64775 13.5294 2.88177 13.5294H11.7053C11.9393 13.5294 12.1637 13.6224 12.3292 13.7878C12.4947 13.9533 12.5876 14.1778 12.5876 14.4118V14.7141L12.5794 14.8082C12.5117 15.3823 12.3041 15.9309 11.9747 16.4059C11.3947 17.2353 10.1429 18.2353 7.29353 18.2353C4.44412 18.2353 3.19235 17.2353 2.61118 16.4059C2.28224 15.9308 2.075 15.3822 2.00765 14.8082L1.99941 14.7141Z" fill="white"/>
</svg>
