<svg width="14" height="14" viewBox="0 0 14 14" fill="none" xmlns="http://www.w3.org/2000/svg">
<path fill-rule="evenodd" clip-rule="evenodd" d="M0.470072 0.469996C0.610698 0.329546 0.801322 0.250656 1.00007 0.250656C1.19882 0.250656 1.38945 0.329546 1.53007 0.469996L13.5301 12.47C13.6038 12.5387 13.6629 12.6215 13.7039 12.7135C13.7448 12.8055 13.7669 12.9048 13.7687 13.0055C13.7704 13.1062 13.7519 13.2062 13.7142 13.2996C13.6765 13.393 13.6203 13.4778 13.5491 13.549C13.4779 13.6203 13.3931 13.6764 13.2997 13.7141C13.2063 13.7518 13.1063 13.7704 13.0056 13.7686C12.9048 13.7668 12.8055 13.7448 12.7135 13.7038C12.6215 13.6628 12.5387 13.6037 12.4701 13.53L0.470072 1.53C0.329622 1.38937 0.250732 1.19875 0.250732 0.999996C0.250732 0.801246 0.329622 0.610621 0.470072 0.469996Z" fill="white"/>
<path fill-rule="evenodd" clip-rule="evenodd" d="M13.5301 0.469996C13.6705 0.610621 13.7494 0.801246 13.7494 0.999996C13.7494 1.19875 13.6705 1.38937 13.5301 1.53L1.53009 13.53C1.38792 13.6625 1.19987 13.7346 1.00557 13.7312C0.811267 13.7277 0.625882 13.649 0.488469 13.5116C0.351056 13.3742 0.272344 13.1888 0.268916 12.9945C0.265487 12.8002 0.33761 12.6122 0.47009 12.47L12.4701 0.469996C12.6107 0.329546 12.8013 0.250656 13.0001 0.250656C13.1988 0.250656 13.3895 0.329546 13.5301 0.469996Z" fill="white"/>
</svg>
