<svg width="29" height="24" viewBox="0 0 29 24" fill="none" xmlns="http://www.w3.org/2000/svg">
<path d="M22.7499 17.5C23.9102 17.5 25.023 17.0391 25.8435 16.2186C26.6639 15.3981 27.1249 14.2853 27.1249 13.125C27.1249 11.9647 26.6639 10.8519 25.8435 10.0314C25.023 9.21094 23.9102 8.75 22.7499 8.75H21.4999C21.6823 7.93745 21.685 7.10052 21.508 6.287C21.331 5.47348 20.9777 4.6993 20.4683 4.00866C19.9589 3.31802 19.3033 2.72446 18.539 2.26185C17.7747 1.79924 16.9166 1.47665 16.0138 1.3125C15.1109 1.14835 14.181 1.14585 13.2771 1.30514C12.3732 1.46443 11.513 1.7824 10.7456 2.24089C9.19582 3.16685 8.11822 4.60897 7.74986 6.25C6.4173 6.19662 5.10679 6.588 4.0427 7.35712C2.97862 8.12625 2.22714 9.22527 1.91695 10.466C1.60677 11.7068 1.75715 13.0121 2.34236 14.1585C2.92758 15.3048 3.91122 16.221 5.12486 16.75M13.9999 11.25V22.5M13.9999 22.5L10.2499 18.75M13.9999 22.5L17.7499 18.75" stroke="#00BEEC" stroke-width="2" stroke-linecap="round" stroke-linejoin="round"/>
</svg>
