<svg width="22" height="22" viewBox="0 0 22 22" fill="none" xmlns="http://www.w3.org/2000/svg">
<path d="M6.41675 8.86138C6.41675 8.21299 6.67432 7.59116 7.1328 7.13268C7.59128 6.6742 8.21311 6.41663 8.8615 6.41663H16.8053C17.1264 6.41663 17.4443 6.47986 17.7409 6.60272C18.0375 6.72558 18.307 6.90566 18.534 7.13268C18.761 7.35969 18.9411 7.6292 19.064 7.92581C19.1868 8.22242 19.2501 8.54033 19.2501 8.86138V16.8052C19.2501 17.1263 19.1868 17.4442 19.064 17.7408C18.9411 18.0374 18.761 18.3069 18.534 18.5339C18.307 18.7609 18.0375 18.941 17.7409 19.0639C17.4443 19.1867 17.1264 19.25 16.8053 19.25H8.8615C8.54045 19.25 8.22254 19.1867 7.92593 19.0639C7.62932 18.941 7.35981 18.7609 7.1328 18.5339C6.90578 18.3069 6.7257 18.0374 6.60284 17.7408C6.47998 17.4442 6.41675 17.1263 6.41675 16.8052V8.86138Z" stroke="#00BEEC" stroke-width="1.83333" stroke-linecap="round" stroke-linejoin="round"/>
<path d="M3.67767 15.3422C3.39625 15.1824 3.16218 14.9508 2.99924 14.6711C2.83631 14.3915 2.75031 14.0737 2.75 13.75V4.58333C2.75 3.575 3.575 2.75 4.58333 2.75H13.75C14.4375 2.75 14.8115 3.10292 15.125 3.66667" stroke="#00BEEC" stroke-width="1.83333" stroke-linecap="round" stroke-linejoin="round"/>
</svg>
