<svg width="19" height="20" viewBox="0 0 19 20" fill="none" xmlns="http://www.w3.org/2000/svg">
<path d="M2.17712 9.70362C2.17712 11.6458 2.94864 13.5084 4.32196 14.8817C5.69527 16.255 7.55788 17.0265 9.50004 17.0265V2.38071C7.55788 2.38071 5.69527 3.15223 4.32196 4.52554C2.94864 5.89885 2.17712 7.76147 2.17712 9.70362Z" fill="#00BEEC"/>
<path d="M9.50004 17.0265C11.4422 17.0265 13.3048 16.255 14.6781 14.8817C16.0514 13.5084 16.823 11.6458 16.823 9.70362C16.823 7.76146 16.0514 5.89885 14.6781 4.52554C13.3048 3.15223 11.4422 2.38071 9.50004 2.38071M9.50004 17.0265C7.55788 17.0265 5.69527 16.255 4.32196 14.8817C2.94864 13.5084 2.17712 11.6458 2.17712 9.70362C2.17712 7.76146 2.94864 5.89885 4.32196 4.52554C5.69527 3.15223 7.55788 2.38071 9.50004 2.38071M9.50004 17.0265V2.38071" stroke="#00BEEC" stroke-linecap="round" stroke-linejoin="round"/>
</svg>
