<svg width="24" height="24" viewBox="0 0 24 24" fill="none" xmlns="http://www.w3.org/2000/svg">
<path d="M12 3.75C11.6022 3.75 11.2206 3.90804 10.9393 4.18934C10.658 4.47064 10.5 4.85218 10.5 5.25C10.5 5.64782 10.658 6.02936 10.9393 6.31066C11.2206 6.59196 11.6022 6.75 12 6.75C12.3978 6.75 12.7794 6.59196 13.0607 6.31066C13.342 6.02936 13.5 5.64782 13.5 5.25C13.5 4.85218 13.342 4.47064 13.0607 4.18934C12.7794 3.90804 12.3978 3.75 12 3.75ZM9 5.25C9 4.45435 9.31607 3.69129 9.87868 3.12868C10.4413 2.56607 11.2044 2.25 12 2.25C12.7956 2.25 13.5587 2.56607 14.1213 3.12868C14.6839 3.69129 15 4.45435 15 5.25C15 6.04565 14.6839 6.80871 14.1213 7.37132C13.5587 7.93393 12.7956 8.25 12 8.25C11.2044 8.25 10.4413 7.93393 9.87868 7.37132C9.31607 6.80871 9 6.04565 9 5.25ZM19.125 4.5C18.8266 4.5 18.5405 4.61853 18.3295 4.8295C18.1185 5.04048 18 5.32663 18 5.625C18 5.92337 18.1185 6.20952 18.3295 6.4205C18.5405 6.63147 18.8266 6.75 19.125 6.75C19.4234 6.75 19.7095 6.63147 19.9205 6.4205C20.1315 6.20952 20.25 5.92337 20.25 5.625C20.25 5.32663 20.1315 5.04048 19.9205 4.8295C19.7095 4.61853 19.4234 4.5 19.125 4.5ZM16.5 5.625C16.5 5.28028 16.5679 4.93894 16.6998 4.62046C16.8317 4.30198 17.0251 4.0126 17.2688 3.76884C17.5126 3.52509 17.802 3.33173 18.1205 3.19982C18.4389 3.0679 18.7803 3 19.125 3C19.4697 3 19.8111 3.0679 20.1295 3.19982C20.448 3.33173 20.7374 3.52509 20.9812 3.76884C21.2249 4.0126 21.4183 4.30198 21.5502 4.62046C21.6821 4.93894 21.75 5.28028 21.75 5.625C21.75 6.32119 21.4734 6.98887 20.9812 7.48116C20.4889 7.97344 19.8212 8.25 19.125 8.25C18.4288 8.25 17.7611 7.97344 17.2688 7.48116C16.7766 6.98887 16.5 6.32119 16.5 5.625ZM3.75 5.625C3.75 5.32663 3.86853 5.04048 4.0795 4.8295C4.29048 4.61853 4.57663 4.5 4.875 4.5C5.17337 4.5 5.45952 4.61853 5.6705 4.8295C5.88147 5.04048 6 5.32663 6 5.625C6 5.92337 5.88147 6.20952 5.6705 6.4205C5.45952 6.63147 5.17337 6.75 4.875 6.75C4.57663 6.75 4.29048 6.63147 4.0795 6.4205C3.86853 6.20952 3.75 5.92337 3.75 5.625ZM4.875 3C4.17881 3 3.51113 3.27656 3.01885 3.76884C2.52656 4.26113 2.25 4.92881 2.25 5.625C2.25 6.32119 2.52656 6.98887 3.01885 7.48116C3.51113 7.97344 4.17881 8.25 4.875 8.25C5.57119 8.25 6.23887 7.97344 6.73116 7.48116C7.22344 6.98887 7.5 6.32119 7.5 5.625C7.5 4.92881 7.22344 4.26113 6.73116 3.76884C6.23887 3.27656 5.57119 3 4.875 3ZM6.48825 18.3787C6.14905 18.6023 5.75564 18.7299 5.34978 18.7479C4.94392 18.7659 4.54075 18.6737 4.18307 18.4811C3.82539 18.2884 3.52655 18.0025 3.31825 17.6537C3.10995 17.3049 2.99998 16.9063 3 16.5V11.625C3 11.5255 3.03951 11.4302 3.10984 11.3598C3.18016 11.2895 3.27554 11.25 3.375 11.25H6.39825C6.46738 10.7011 6.68698 10.1819 7.03275 9.75H3.375C2.87772 9.75 2.40081 9.94754 2.04917 10.2992C1.69754 10.6508 1.5 11.1277 1.5 11.625V16.5C1.49981 17.1458 1.66639 17.7807 1.98363 18.3432C2.30086 18.9057 2.75799 19.3768 3.31073 19.7108C3.86347 20.0447 4.49309 20.2303 5.13861 20.2495C5.78412 20.2687 6.42365 20.1208 6.99525 19.8202C6.76147 19.365 6.59089 18.8801 6.48825 18.3787ZM17.0048 19.8202C17.5763 20.1208 18.2159 20.2687 18.8614 20.2495C19.5069 20.2303 20.1365 20.0447 20.6893 19.7108C21.242 19.3768 21.6991 18.9057 22.0164 18.3432C22.3336 17.7807 22.5002 17.1458 22.5 16.5V11.625C22.5 11.1277 22.3025 10.6508 21.9508 10.2992C21.5992 9.94754 21.1223 9.75 20.625 9.75H16.9672C17.313 10.1819 17.5326 10.7011 17.6017 11.25H20.625C20.7245 11.25 20.8198 11.2895 20.8902 11.3598C20.9605 11.4302 21 11.5255 21 11.625V16.5C21 16.9063 20.89 17.3049 20.6818 17.6537C20.4735 18.0025 20.1746 18.2884 19.8169 18.4811C19.4592 18.6737 19.0561 18.7659 18.6502 18.7479C18.2444 18.7299 17.851 18.6023 17.5118 18.3787C17.4091 18.8801 17.2385 19.365 17.0048 19.8202ZM9.375 9.75C8.87772 9.75 8.40081 9.94754 8.04917 10.2992C7.69754 10.6508 7.5 11.1277 7.5 11.625V17.25C7.5 18.4435 7.97411 19.5881 8.81802 20.432C9.66193 21.2759 10.8065 21.75 12 21.75C13.1935 21.75 14.3381 21.2759 15.182 20.432C16.0259 19.5881 16.5 18.4435 16.5 17.25V11.625C16.5 11.1277 16.3025 10.6508 15.9508 10.2992C15.5992 9.94754 15.1223 9.75 14.625 9.75H9.375ZM9 11.625C9 11.5255 9.03951 11.4302 9.10983 11.3598C9.18016 11.2895 9.27554 11.25 9.375 11.25H14.625C14.7245 11.25 14.8198 11.2895 14.8902 11.3598C14.9605 11.4302 15 11.5255 15 11.625V17.25C15 18.0456 14.6839 18.8087 14.1213 19.3713C13.5587 19.9339 12.7956 20.25 12 20.25C11.2044 20.25 10.4413 19.9339 9.87868 19.3713C9.31607 18.8087 9 18.0456 9 17.25V11.625Z" fill="white"/>
</svg>
