<svg width="24" height="24" viewBox="0 0 24 24" fill="none" xmlns="http://www.w3.org/2000/svg">
<path fill-rule="evenodd" clip-rule="evenodd" d="M3.547 12.322C3.547 7.21202 7.687 3.07202 12.797 3.07202C17.907 3.07202 22.047 7.21202 22.047 12.322C22.047 17.432 17.907 21.572 12.797 21.572C7.687 21.572 3.547 17.432 3.547 12.322ZM12.797 1.57202C6.857 1.57202 2.047 6.38202 2.047 12.322C2.047 18.262 6.857 23.072 12.797 23.072C18.737 23.072 23.547 18.262 23.547 12.322C23.547 6.38202 18.737 1.57202 12.797 1.57202ZM14.517 8.15202L13.887 7.17202C13.377 6.37202 12.217 6.37202 11.707 7.17202L11.077 8.15202C10.447 9.14202 9.617 9.97202 8.627 10.602L7.647 11.232C6.847 11.742 6.847 12.902 7.647 13.412L8.627 14.042C9.617 14.672 10.447 15.502 11.077 16.492L11.707 17.472C12.217 18.272 13.377 18.272 13.887 17.472L14.517 16.492C15.147 15.502 15.977 14.672 16.967 14.042L17.947 13.412C18.747 12.902 18.747 11.742 17.947 11.232L16.967 10.602C15.9812 9.97413 15.1449 9.13786 14.517 8.15202ZM12.347 8.95202L12.797 8.24202L13.247 8.95202C13.9945 10.1277 14.9913 11.1246 16.167 11.872L16.877 12.322L16.167 12.772C14.9913 13.5195 13.9945 14.5164 13.247 15.692L12.797 16.402L12.347 15.692C11.5995 14.5164 10.6027 13.5195 9.427 12.772L8.717 12.322L9.427 11.872C10.6027 11.1246 11.5995 10.1277 12.347 8.95202Z" fill="white"/>
</svg>
