<svg width="24" height="24" viewBox="0 0 24 24" fill="none" xmlns="http://www.w3.org/2000/svg">
<path d="M18.8437 7.875C18.7064 9.78141 17.2922 11.25 15.75 11.25C14.2078 11.25 12.7912 9.78188 12.6562 7.875C12.5156 5.89172 13.8923 4.5 15.75 4.5C17.6076 4.5 18.9844 5.92781 18.8437 7.875Z" stroke="white" stroke-width="1.6" stroke-linecap="round" stroke-linejoin="round"/>
<path d="M15.75 14.25C12.6952 14.25 9.7575 15.7673 9.02156 18.7223C8.92406 19.1133 9.16922 19.5 9.57093 19.5H21.9295C22.3312 19.5 22.575 19.1133 22.4789 18.7223C21.743 15.72 18.8053 14.25 15.75 14.25Z" stroke="white" stroke-width="1.6" stroke-miterlimit="10"/>
<path d="M9.37499 8.71594C9.2653 10.2384 8.12249 11.4375 6.89061 11.4375C5.65874 11.4375 4.51405 10.2389 4.40624 8.71594C4.29421 7.13203 5.40655 6 6.89061 6C8.37468 6 9.48702 7.16109 9.37499 8.71594Z" stroke="white" stroke-width="1.6" stroke-linecap="round" stroke-linejoin="round"/>
<path d="M9.65625 14.3438C8.81016 13.9562 7.87828 13.8071 6.89063 13.8071C4.45313 13.8071 2.10469 15.0188 1.51641 17.379C1.43906 17.6912 1.635 18.0001 1.95563 18.0001H7.21875" stroke="white" stroke-width="1.6" stroke-miterlimit="10" stroke-linecap="round"/>
</svg>
