<svg width="18" height="19" viewBox="0 0 18 19" fill="none" xmlns="http://www.w3.org/2000/svg">
<path d="M1.99988 10.6364C2.54988 10.6364 2.99988 10.1864 2.99988 9.63635C2.99988 9.08635 2.54988 8.63635 1.99988 8.63635C1.44988 8.63635 0.999878 9.08635 0.999878 9.63635C0.999878 10.1864 1.44988 10.6364 1.99988 10.6364Z" stroke="white" stroke-width="1.63636" stroke-miterlimit="10" stroke-linecap="round" stroke-linejoin="round"/>
<path d="M15.9999 10.6364C16.5499 10.6364 16.9999 10.1864 16.9999 9.63635C16.9999 9.08635 16.5499 8.63635 15.9999 8.63635C15.4499 8.63635 14.9999 9.08635 14.9999 9.63635C14.9999 10.1864 15.4499 10.6364 15.9999 10.6364Z" stroke="white" stroke-width="1.63636" stroke-miterlimit="10" stroke-linecap="round" stroke-linejoin="round"/>
<path d="M9 17.6363C9.55 17.6363 10 17.1863 10 16.6363C10 16.0863 9.55 15.6363 9 15.6363C8.45 15.6363 8 16.0863 8 16.6363C8 17.1863 8.45 17.6363 9 17.6363Z" stroke="white" stroke-width="1.63636" stroke-miterlimit="10" stroke-linecap="round" stroke-linejoin="round"/>
<path d="M9 3.63623C9.55 3.63623 10 3.18623 10 2.63623C10 2.08623 9.55 1.63623 9 1.63623C8.45 1.63623 8 2.08623 8 2.63623C8 3.18623 8.45 3.63623 9 3.63623Z" stroke="white" stroke-width="1.63636" stroke-miterlimit="10" stroke-linecap="round" stroke-linejoin="round"/>
<path d="M9 10.6364C9.55 10.6364 10 10.1864 10 9.63635C10 9.08635 9.55 8.63635 9 8.63635C8.45 8.63635 8 9.08635 8 9.63635C8 10.1864 8.45 10.6364 9 10.6364Z" stroke="white" stroke-width="1.63636" stroke-miterlimit="10" stroke-linecap="round" stroke-linejoin="round"/>
<path d="M1.99988 17.6363C2.54988 17.6363 2.99988 17.1863 2.99988 16.6363C2.99988 16.0863 2.54988 15.6363 1.99988 15.6363C1.44988 15.6363 0.999878 16.0863 0.999878 16.6363C0.999878 17.1863 1.44988 17.6363 1.99988 17.6363Z" stroke="white" stroke-width="1.63636" stroke-miterlimit="10" stroke-linecap="round" stroke-linejoin="round"/>
<path d="M15.9999 17.6363C16.5499 17.6363 16.9999 17.1863 16.9999 16.6363C16.9999 16.0863 16.5499 15.6363 15.9999 15.6363C15.4499 15.6363 14.9999 16.0863 14.9999 16.6363C14.9999 17.1863 15.4499 17.6363 15.9999 17.6363Z" stroke="white" stroke-width="1.63636" stroke-miterlimit="10" stroke-linecap="round" stroke-linejoin="round"/>
<path d="M1.99988 3.63623C2.54988 3.63623 2.99988 3.18623 2.99988 2.63623C2.99988 2.08623 2.54988 1.63623 1.99988 1.63623C1.44988 1.63623 0.999878 2.08623 0.999878 2.63623C0.999878 3.18623 1.44988 3.63623 1.99988 3.63623Z" stroke="white" stroke-width="1.63636" stroke-miterlimit="10" stroke-linecap="round" stroke-linejoin="round"/>
<path d="M15.9999 3.63623C16.5499 3.63623 16.9999 3.18623 16.9999 2.63623C16.9999 2.08623 16.5499 1.63623 15.9999 1.63623C15.4499 1.63623 14.9999 2.08623 14.9999 2.63623C14.9999 3.18623 15.4499 3.63623 15.9999 3.63623Z" stroke="white" stroke-width="1.63636" stroke-miterlimit="10" stroke-linecap="round" stroke-linejoin="round"/>
</svg>
