<svg width="12" height="12" viewBox="0 0 12 12" fill="none" xmlns="http://www.w3.org/2000/svg">
<path d="M1.24023 2.81369H2.32357M2.32357 2.81369H10.9902M2.32357 2.81369L2.32387 10.3971C2.32387 10.6844 2.43801 10.96 2.64117 11.1631C2.84434 11.3663 3.11989 11.4804 3.4072 11.4804H8.82387C9.11119 11.4804 9.38674 11.3663 9.5899 11.1631C9.79307 10.96 9.9072 10.6844 9.9072 10.3971V2.81376M3.94887 2.81376V1.73043C3.94887 1.44311 4.06301 1.16756 4.26617 0.964396C4.46934 0.761231 4.74489 0.647095 5.0322 0.647095H7.19887C7.48619 0.647095 7.76174 0.761231 7.9649 0.964396C8.16807 1.16756 8.2822 1.44311 8.2822 1.73043V2.81376M5.0316 5.52209V8.77209M7.19887 5.52209V8.77209" stroke="#FF0000" stroke-width="0.975" stroke-linecap="round" stroke-linejoin="round"/>
</svg>
