<svg width="52" height="52" viewBox="0 0 52 52" fill="none" xmlns="http://www.w3.org/2000/svg">
<g filter="url(#filter0_d_219_573)">
<rect x="12" y="8" width="28" height="28" rx="14" fill="#00BEEC" fill-opacity="0.2" shape-rendering="crispEdges"/>
<path d="M20.6675 17.7803L22.2083 27.0867C22.2787 27.5127 22.4982 27.8999 22.8275 28.1793C23.1568 28.4586 23.5745 28.612 24.0064 28.6121H26.4476M31.3316 17.7803L29.7916 27.0867C29.7211 27.5127 29.5017 27.8999 29.1724 28.1793C28.8431 28.4586 28.4253 28.612 27.9935 28.6121H25.5522M24.5576 21.3554V25.037M27.4422 21.3554V25.037M19.2551 17.7803H32.7447M28.0248 17.7803V16.4824C28.0248 16.1923 27.9096 15.9141 27.7045 15.709C27.4993 15.5039 27.2211 15.3887 26.9311 15.3887H25.0688C24.7787 15.3887 24.5005 15.5039 24.2954 15.709C24.0903 15.9141 23.975 16.1923 23.975 16.4824V17.7803H28.0248Z" stroke="white" stroke-width="1.4" stroke-linecap="round" stroke-linejoin="round"/>
</g>
<defs>
<filter id="filter0_d_219_573" x="0" y="0" width="52" height="52" filterUnits="userSpaceOnUse" color-interpolation-filters="sRGB">
<feFlood flood-opacity="0" result="BackgroundImageFix"/>
<feColorMatrix in="SourceAlpha" type="matrix" values="0 0 0 0 0 0 0 0 0 0 0 0 0 0 0 0 0 0 127 0" result="hardAlpha"/>
<feOffset dy="4"/>
<feGaussianBlur stdDeviation="6"/>
<feComposite in2="hardAlpha" operator="out"/>
<feColorMatrix type="matrix" values="0 0 0 0 0 0 0 0 0 0 0 0 0 0 0 0 0 0 0.15 0"/>
<feBlend mode="normal" in2="BackgroundImageFix" result="effect1_dropShadow_219_573"/>
<feBlend mode="normal" in="SourceGraphic" in2="effect1_dropShadow_219_573" result="shape"/>
</filter>
</defs>
</svg>
