<svg width="16" height="16" viewBox="0 0 16 16" fill="none" xmlns="http://www.w3.org/2000/svg">
<path d="M2.66752 3.78034L4.20825 13.0867C4.27873 13.5127 4.49816 13.8999 4.82746 14.1793C5.15676 14.4586 5.57454 14.612 6.00638 14.6121H8.44763M13.3316 3.78034L11.7916 13.0867C11.7211 13.5127 11.5017 13.8999 11.1724 14.1793C10.8431 14.4586 10.4253 14.612 9.99346 14.6121H7.55221M6.55763 7.35544V11.037M9.44221 7.35544V11.037M1.25513 3.78034H14.7447M10.0248 3.78034V2.48242C10.0248 2.19234 9.90958 1.91414 9.70446 1.70902C9.49934 1.50391 9.22115 1.38867 8.93106 1.38867H7.06877C6.77869 1.38867 6.50049 1.50391 6.29538 1.70902C6.09026 1.91414 5.97502 2.19234 5.97502 2.48242V3.78034H10.0248Z" stroke="white" stroke-width="1.4" stroke-linecap="round" stroke-linejoin="round"/>
</svg>
