<svg width="20" height="20" viewBox="0 0 20 20" fill="none" xmlns="http://www.w3.org/2000/svg">
<path d="M5.41659 2.66671C5.41659 2.18048 5.60974 1.71416 5.95356 1.37034C6.29737 1.02653 6.76369 0.833374 7.24992 0.833374H12.7499C13.2361 0.833374 13.7025 1.02653 14.0463 1.37034C14.3901 1.71416 14.5833 2.18048 14.5833 2.66671V4.50004H18.2499C18.493 4.50004 18.7262 4.59662 18.8981 4.76853C19.07 4.94043 19.1666 5.17359 19.1666 5.41671C19.1666 5.65982 19.07 5.89298 18.8981 6.06489C18.7262 6.2368 18.493 6.33337 18.2499 6.33337H17.27L16.4753 17.4635C16.4423 17.9261 16.2354 18.359 15.896 18.675C15.5567 18.991 15.1102 19.1667 14.6465 19.1667H5.35242C4.88871 19.1667 4.44223 18.991 4.1029 18.675C3.76356 18.359 3.55659 17.9261 3.52367 17.4635L2.73075 6.33337H1.74992C1.5068 6.33337 1.27365 6.2368 1.10174 6.06489C0.929829 5.89298 0.833252 5.65982 0.833252 5.41671C0.833252 5.17359 0.929829 4.94043 1.10174 4.76853C1.27365 4.59662 1.5068 4.50004 1.74992 4.50004H5.41659V2.66671ZM7.24992 4.50004H12.7499V2.66671H7.24992V4.50004ZM4.56775 6.33337L5.35334 17.3334H14.6474L15.433 6.33337H4.56775ZM8.16659 8.16671C8.4097 8.16671 8.64286 8.26328 8.81477 8.43519C8.98668 8.6071 9.08325 8.84026 9.08325 9.08337V14.5834C9.08325 14.8265 8.98668 15.0596 8.81477 15.2316C8.64286 15.4035 8.4097 15.5 8.16659 15.5C7.92347 15.5 7.69031 15.4035 7.5184 15.2316C7.3465 15.0596 7.24992 14.8265 7.24992 14.5834V9.08337C7.24992 8.84026 7.3465 8.6071 7.5184 8.43519C7.69031 8.26328 7.92347 8.16671 8.16659 8.16671ZM11.8333 8.16671C12.0764 8.16671 12.3095 8.26328 12.4814 8.43519C12.6533 8.6071 12.7499 8.84026 12.7499 9.08337V14.5834C12.7499 14.8265 12.6533 15.0596 12.4814 15.2316C12.3095 15.4035 12.0764 15.5 11.8333 15.5C11.5901 15.5 11.357 15.4035 11.1851 15.2316C11.0132 15.0596 10.9166 14.8265 10.9166 14.5834V9.08337C10.9166 8.84026 11.0132 8.6071 11.1851 8.43519C11.357 8.26328 11.5901 8.16671 11.8333 8.16671Z" fill="#00BEEC"/>
</svg>
