<svg width="52" height="52" viewBox="0 0 52 52" fill="none" xmlns="http://www.w3.org/2000/svg">
<g filter="url(#filter0_d_219_568)">
<rect x="12" y="8" width="28" height="28" rx="14" fill="#00BEEC" fill-opacity="0.2" shape-rendering="crispEdges"/>
<path d="M22.3542 18.3542H21.6251C21.2383 18.3542 20.8674 18.5079 20.5939 18.7814C20.3204 19.0549 20.1667 19.4258 20.1667 19.8126V26.3751C20.1667 26.7619 20.3204 27.1328 20.5939 27.4063C20.8674 27.6798 21.2383 27.8334 21.6251 27.8334H28.1876C28.5744 27.8334 28.9453 27.6798 29.2188 27.4063C29.4923 27.1328 29.6459 26.7619 29.6459 26.3751V25.6459" stroke="white" stroke-width="1.4" stroke-linecap="round" stroke-linejoin="round"/>
<path d="M28.9167 16.8959L31.1042 19.0834M32.1141 18.0516C32.4012 17.7645 32.5626 17.375 32.5626 16.9688C32.5626 16.5627 32.4012 16.1732 32.1141 15.886C31.8269 15.5988 31.4374 15.4375 31.0312 15.4375C30.6251 15.4375 30.2356 15.5988 29.9484 15.886L23.8125 22.0001V24.1876H26L32.1141 18.0516Z" stroke="white" stroke-width="1.4" stroke-linecap="round" stroke-linejoin="round"/>
</g>
<defs>
<filter id="filter0_d_219_568" x="0" y="0" width="52" height="52" filterUnits="userSpaceOnUse" color-interpolation-filters="sRGB">
<feFlood flood-opacity="0" result="BackgroundImageFix"/>
<feColorMatrix in="SourceAlpha" type="matrix" values="0 0 0 0 0 0 0 0 0 0 0 0 0 0 0 0 0 0 127 0" result="hardAlpha"/>
<feOffset dy="4"/>
<feGaussianBlur stdDeviation="6"/>
<feComposite in2="hardAlpha" operator="out"/>
<feColorMatrix type="matrix" values="0 0 0 0 0 0 0 0 0 0 0 0 0 0 0 0 0 0 0.15 0"/>
<feBlend mode="normal" in2="BackgroundImageFix" result="effect1_dropShadow_219_568"/>
<feBlend mode="normal" in="SourceGraphic" in2="effect1_dropShadow_219_568" result="shape"/>
</filter>
</defs>
</svg>
