<svg width="22" height="22" viewBox="0 0 22 22" fill="none" xmlns="http://www.w3.org/2000/svg">
<path d="M6.41675 6.41663H5.50008C5.01385 6.41663 4.54754 6.60978 4.20372 6.9536C3.8599 7.29741 3.66675 7.76373 3.66675 8.24996V16.5C3.66675 16.9862 3.8599 17.4525 4.20372 17.7963C4.54754 18.1401 5.01385 18.3333 5.50008 18.3333H13.7501C14.2363 18.3333 14.7026 18.1401 15.0464 17.7963C15.3903 17.4525 15.5834 16.9862 15.5834 16.5V15.5833" stroke="#00BEEC" stroke-width="1.83333" stroke-linecap="round" stroke-linejoin="round"/>
<path d="M14.6667 4.58331L17.4167 7.33331M18.6863 6.03623C19.0473 5.6752 19.2501 5.18554 19.2501 4.67498C19.2501 4.16441 19.0473 3.67475 18.6863 3.31373C18.3252 2.9527 17.8356 2.74988 17.325 2.74988C16.8144 2.74988 16.3248 2.9527 15.9638 3.31373L8.25 11V13.75H11L18.6863 6.03623Z" stroke="#00BEEC" stroke-width="1.83333" stroke-linecap="round" stroke-linejoin="round"/>
</svg>
