<svg width="15" height="15" viewBox="0 0 15 15" fill="none" xmlns="http://www.w3.org/2000/svg">
<path d="M3.35425 4.35425H2.62508C2.23831 4.35425 1.86737 4.50789 1.59388 4.78138C1.32039 5.05487 1.16675 5.42581 1.16675 5.81258V12.3751C1.16675 12.7619 1.32039 13.1328 1.59388 13.4063C1.86737 13.6798 2.23831 13.8334 2.62508 13.8334H9.18758C9.57435 13.8334 9.94529 13.6798 10.2188 13.4063C10.4923 13.1328 10.6459 12.7619 10.6459 12.3751V11.6459" stroke="white" stroke-width="1.4" stroke-linecap="round" stroke-linejoin="round"/>
<path d="M9.91667 2.89591L12.1042 5.08341M13.1141 4.05164C13.4012 3.76446 13.5626 3.37496 13.5626 2.96883C13.5626 2.56269 13.4012 2.1732 13.1141 1.88602C12.8269 1.59884 12.4374 1.4375 12.0312 1.4375C11.6251 1.4375 11.2356 1.59884 10.9484 1.88602L4.8125 8.00008V10.1876H7L13.1141 4.05164Z" stroke="white" stroke-width="1.4" stroke-linecap="round" stroke-linejoin="round"/>
</svg>
