<svg width="14" height="14" viewBox="0 0 14 14" fill="none" xmlns="http://www.w3.org/2000/svg">
<path d="M3.86523 4.57833H3.32357C3.03625 4.57833 2.7607 4.69247 2.55754 4.89564C2.35437 5.0988 2.24023 5.37435 2.24023 5.66167V10.5367C2.24023 10.824 2.35437 11.0995 2.55754 11.3027C2.7607 11.5059 3.03625 11.62 3.32357 11.62H8.19857C8.48588 11.62 8.76143 11.5059 8.9646 11.3027C9.16776 11.0995 9.2819 10.824 9.2819 10.5367V9.995M8.74008 3.49513L10.3651 5.12013M11.1153 4.35368C11.3286 4.14034 11.4485 3.851 11.4485 3.5493C11.4485 3.2476 11.3286 2.95826 11.1153 2.74493C10.902 2.53159 10.6126 2.41174 10.3109 2.41174C10.0092 2.41174 9.71987 2.53159 9.50654 2.74493L4.94842 7.2868V8.9118H6.57342L11.1153 4.35368Z" stroke="white" stroke-linecap="round" stroke-linejoin="round"/>
</svg>
