<svg width="52" height="52" viewBox="0 0 52 52" fill="none" xmlns="http://www.w3.org/2000/svg">
<g filter="url(#filter0_d_219_563)">
<rect x="12" y="8" width="28" height="28" rx="14" fill="#00BEEC" fill-opacity="0.2" shape-rendering="crispEdges"/>
<path d="M28.1875 22.0002C28.1875 22.5804 27.957 23.1368 27.5468 23.547C27.1366 23.9573 26.5802 24.1877 26 24.1877C25.4198 24.1877 24.8634 23.9573 24.4532 23.547C24.043 23.1368 23.8125 22.5804 23.8125 22.0002C23.8125 21.4201 24.043 20.8637 24.4532 20.4534C24.8634 20.0432 25.4198 19.8127 26 19.8127C26.5802 19.8127 27.1366 20.0432 27.5468 20.4534C27.957 20.8637 28.1875 21.4201 28.1875 22.0002Z" stroke="white" stroke-width="1.4" stroke-linecap="round" stroke-linejoin="round"/>
<path d="M18.7083 22.0002C19.8749 19.0128 22.5991 16.896 25.9999 16.896C29.4008 16.896 32.1249 19.0128 33.2916 22.0002C32.1249 24.9876 29.4008 27.1043 25.9999 27.1043C22.5991 27.1043 19.8749 24.9876 18.7083 22.0002Z" stroke="white" stroke-width="1.4" stroke-linecap="round" stroke-linejoin="round"/>
</g>
<defs>
<filter id="filter0_d_219_563" x="0" y="0" width="52" height="52" filterUnits="userSpaceOnUse" color-interpolation-filters="sRGB">
<feFlood flood-opacity="0" result="BackgroundImageFix"/>
<feColorMatrix in="SourceAlpha" type="matrix" values="0 0 0 0 0 0 0 0 0 0 0 0 0 0 0 0 0 0 127 0" result="hardAlpha"/>
<feOffset dy="4"/>
<feGaussianBlur stdDeviation="6"/>
<feComposite in2="hardAlpha" operator="out"/>
<feColorMatrix type="matrix" values="0 0 0 0 0 0 0 0 0 0 0 0 0 0 0 0 0 0 0.15 0"/>
<feBlend mode="normal" in2="BackgroundImageFix" result="effect1_dropShadow_219_563"/>
<feBlend mode="normal" in="SourceGraphic" in2="effect1_dropShadow_219_563" result="shape"/>
</filter>
</defs>
</svg>
