<svg width="16" height="12" viewBox="0 0 16 12" fill="none" xmlns="http://www.w3.org/2000/svg">
<path d="M10.1875 6.00024C10.1875 6.58041 9.95703 7.1368 9.5468 7.54704C9.13656 7.95728 8.58016 8.18774 8 8.18774C7.41984 8.18774 6.86344 7.95728 6.4532 7.54704C6.04297 7.1368 5.8125 6.58041 5.8125 6.00024C5.8125 5.42008 6.04297 4.86368 6.4532 4.45345C6.86344 4.04321 7.41984 3.81274 8 3.81274C8.58016 3.81274 9.13656 4.04321 9.5468 4.45345C9.95703 4.86368 10.1875 5.42008 10.1875 6.00024Z" stroke="white" stroke-width="1.4" stroke-linecap="round" stroke-linejoin="round"/>
<path d="M0.708252 6.00016C1.87492 3.01277 4.59909 0.895996 7.99992 0.895996C11.4008 0.895996 14.1249 3.01277 15.2916 6.00016C14.1249 8.98756 11.4008 11.1043 7.99992 11.1043C4.59909 11.1043 1.87492 8.98756 0.708252 6.00016Z" stroke="white" stroke-width="1.4" stroke-linecap="round" stroke-linejoin="round"/>
</svg>
