<svg width="18" height="19" viewBox="0 0 18 19" fill="none" xmlns="http://www.w3.org/2000/svg">
<path d="M2.25 10.25C4.95 4.25 13.05 4.25 15.75 10.25" stroke="white" stroke-opacity="0.8" stroke-width="1.5" stroke-linecap="round" stroke-linejoin="round"/>
<path d="M9 13.25C8.70453 13.25 8.41194 13.1918 8.13896 13.0787C7.86598 12.9657 7.61794 12.7999 7.40901 12.591C7.20008 12.3821 7.03434 12.134 6.92127 11.861C6.8082 11.5881 6.75 11.2955 6.75 11C6.75 10.7045 6.8082 10.4119 6.92127 10.139C7.03434 9.86598 7.20008 9.61794 7.40901 9.40901C7.61794 9.20008 7.86598 9.03434 8.13896 8.92127C8.41194 8.8082 8.70453 8.75 9 8.75C9.59674 8.75 10.169 8.98705 10.591 9.40901C11.0129 9.83097 11.25 10.4033 11.25 11C11.25 11.5967 11.0129 12.169 10.591 12.591C10.169 13.0129 9.59674 13.25 9 13.25Z" stroke="white" stroke-opacity="0.8" stroke-width="1.5" stroke-linecap="round" stroke-linejoin="round"/>
</svg>
