<svg width="20" height="20" viewBox="0 0 20 20" fill="none" xmlns="http://www.w3.org/2000/svg">
<g clip-path="url(#clip0_345_640)">
<path d="M6.96718 0.657779C4.96887 1.35101 3.24553 2.66679 2.05029 4.41184C0.855051 6.1569 0.250915 8.23925 0.32662 10.353C0.402325 12.4668 1.15388 14.5006 2.47089 16.1557C3.78791 17.8108 5.60096 18.9999 7.64374 19.5484C9.29987 19.9757 11.035 19.9945 12.7 19.6031C14.2083 19.2643 15.6028 18.5396 16.7469 17.5C17.9376 16.3849 18.8019 14.9663 19.2469 13.3968C19.7305 11.6901 19.8165 9.89517 19.4984 8.14997H10.1984V12.0078H15.5844C15.4767 12.6231 15.2461 13.2103 14.9062 13.7344C14.5663 14.2585 14.1241 14.7086 13.6062 15.0578C12.9486 15.4928 12.2072 15.7855 11.4297 15.9172C10.6499 16.0621 9.85008 16.0621 9.0703 15.9172C8.27997 15.7538 7.53233 15.4276 6.87499 14.9593C5.81897 14.2118 5.02605 13.1498 4.60937 11.925C4.18564 10.6771 4.18564 9.32435 4.60937 8.07653C4.90597 7.20187 5.39629 6.40549 6.04374 5.74684C6.78467 4.97926 7.7227 4.43059 8.75492 4.16102C9.78715 3.89146 10.8737 3.91142 11.8953 4.21872C12.6934 4.4637 13.4232 4.89174 14.0266 5.46872C14.6338 4.86455 15.2401 4.25882 15.8453 3.65153C16.1578 3.32497 16.4984 3.01403 16.8062 2.67965C15.8852 1.82259 14.8042 1.15568 13.625 0.717154C11.4777 -0.0625494 9.12808 -0.0835031 6.96718 0.657779Z" fill="white"/>
<path d="M6.96718 0.65805C9.12791 -0.0837359 11.4775 -0.0633337 13.625 0.715863C14.8044 1.15737 15.885 1.82748 16.8047 2.68774C16.4922 3.02211 16.1625 3.33461 15.8437 3.65961C15.2375 4.26482 14.6318 4.86795 14.0266 5.46899C13.4232 4.89201 12.6934 4.46397 11.8953 4.21899C10.874 3.91061 9.78752 3.8895 8.75502 4.15796C7.72253 4.42642 6.78392 4.97408 6.04218 5.74086C5.39473 6.39951 4.90441 7.19589 4.60781 8.07055L1.36874 5.56274C2.52813 3.26361 4.53554 1.50496 6.96718 0.65805Z" fill="#E33629"/>
<path d="M0.509389 8.04688C0.683485 7.18405 0.97252 6.34848 1.36876 5.5625L4.60783 8.07656C4.1841 9.32438 4.1841 10.6772 4.60783 11.925C3.52866 12.7583 2.44897 13.5958 1.36876 14.4375C0.376812 12.463 0.0742836 10.2133 0.509389 8.04688Z" fill="#F8BD00"/>
<path d="M10.1984 8.14844H19.4984C19.8166 9.89365 19.7305 11.6885 19.2469 13.3953C18.8019 14.9648 17.9376 16.3834 16.7469 17.4984C15.7016 16.6828 14.6516 15.8734 13.6063 15.0578C14.1245 14.7082 14.5668 14.2576 14.9067 13.733C15.2467 13.2084 15.4771 12.6205 15.5844 12.0047H10.1984C10.1969 10.7203 10.1984 9.43437 10.1984 8.14844Z" fill="#587DBD"/>
<path d="M1.36719 14.4373C2.4474 13.604 3.52708 12.7665 4.60625 11.9248C5.02376 13.1501 5.81782 14.2121 6.875 14.9592C7.53439 15.4252 8.28364 15.7488 9.075 15.9092C9.85478 16.0542 10.6546 16.0542 11.4344 15.9092C12.2119 15.7776 12.9533 15.4849 13.6109 15.0498C14.6562 15.8654 15.7063 16.6748 16.7516 17.4904C15.6076 18.5306 14.2132 19.2559 12.7047 19.5951C11.0397 19.9865 9.30457 19.9678 7.64844 19.5404C6.3386 19.1907 5.11512 18.5742 4.05469 17.7295C2.93228 16.8384 2.01556 15.7154 1.36719 14.4373Z" fill="#319F43"/>
</g>
<defs>
<clipPath id="clip0_345_640">
<rect width="20" height="20" fill="white"/>
</clipPath>
</defs>
</svg>
