<svg width="22" height="23" viewBox="0 0 22 23" fill="none" xmlns="http://www.w3.org/2000/svg">
<path d="M1.586 17.0504C1.2109 17.4254 1.00011 17.934 1 18.4644V20.6364C1 20.9016 1.10536 21.156 1.29289 21.3435C1.48043 21.531 1.73478 21.6364 2 21.6364H5C5.26522 21.6364 5.51957 21.531 5.70711 21.3435C5.89464 21.156 6 20.9016 6 20.6364V19.6364C6 19.3712 6.10536 19.1168 6.29289 18.9293C6.48043 18.7417 6.73478 18.6364 7 18.6364H8C8.26522 18.6364 8.51957 18.531 8.70711 18.3435C8.89464 18.156 9 17.9016 9 17.6364V16.6364C9 16.3712 9.10536 16.1168 9.29289 15.9293C9.48043 15.7417 9.73478 15.6364 10 15.6364H10.172C10.7024 15.6363 11.211 15.4255 11.586 15.0504L12.4 14.2364C13.7898 14.7205 15.3028 14.7187 16.6915 14.2311C18.0801 13.7436 19.2622 12.7992 20.0444 11.5525C20.8265 10.3058 21.1624 8.83056 20.9971 7.36813C20.8318 5.90569 20.1751 4.54264 19.1344 3.50196C18.0937 2.46128 16.7307 1.80457 15.2683 1.63928C13.8058 1.47399 12.3306 1.80989 11.0839 2.59203C9.83716 3.37418 8.89279 4.55626 8.40525 5.94491C7.91771 7.33356 7.91585 8.84656 8.4 10.2364L1.586 17.0504Z" stroke="white" stroke-width="1.8" stroke-linecap="round" stroke-linejoin="round"/>
<path d="M15.5 7.63635C15.7761 7.63635 16 7.41249 16 7.13635C16 6.86021 15.7761 6.63635 15.5 6.63635C15.2239 6.63635 15 6.86021 15 7.13635C15 7.41249 15.2239 7.63635 15.5 7.63635Z" fill="white" stroke="white" stroke-width="1.8" stroke-linecap="round" stroke-linejoin="round"/>
</svg>
