<svg width="20" height="20" viewBox="0 0 20 20" fill="none" xmlns="http://www.w3.org/2000/svg">
<path d="M5.99985 7.99998V4.99999C5.99985 3.93913 6.42127 2.92171 7.17142 2.17157C7.92157 1.42143 8.93898 1 9.99985 1C11.0607 1 12.0781 1.42143 12.8283 2.17157C13.5784 2.92171 13.9998 3.93913 13.9998 4.99999V7.99998" stroke="white" stroke-opacity="0.5" stroke-width="1.8" stroke-linecap="round"/>
<path d="M3 8H17V17C17 17.5304 16.7893 18.0391 16.4142 18.4142C16.0391 18.7893 15.5304 19 15 19H5C4.46957 19 3.96086 18.7893 3.58579 18.4142C3.21071 18.0391 3 17.5304 3 17V8Z" stroke="white" stroke-opacity="0.5" stroke-width="1.8" stroke-linejoin="round"/>
<path d="M12.5001 13.5H12.5112V13.5111H12.5001V13.5Z" stroke="white" stroke-opacity="0.5" stroke-width="2" stroke-linejoin="round"/>
</svg>
