<svg width="44" height="26" viewBox="0 0 44 26" fill="none" xmlns="http://www.w3.org/2000/svg">
<path fill-rule="evenodd" clip-rule="evenodd" d="M22.0107 22.4161C24.2271 24.4671 27.2036 25.7112 30.4412 25.7112C37.3943 25.7112 43.022 20.0158 43.022 13.0108C43.022 5.98458 37.3943 0.28894 30.4412 0.28894C27.2036 0.28894 24.2271 1.53275 22.0107 3.58402C19.4684 5.91883 17.8604 9.27941 17.8604 13.0108C17.8606 16.7423 19.4684 20.1031 22.0107 22.4161Z" fill="#E9B040"/>
<path fill-rule="evenodd" clip-rule="evenodd" d="M41.3496 20.0809C41.3496 19.8626 41.5235 19.6882 41.7406 19.6882C41.9795 19.6882 42.1531 19.8629 42.1531 20.0809C42.1531 20.3213 41.9792 20.4957 41.7406 20.4957C41.5235 20.4957 41.3496 20.3213 41.3496 20.0809ZM41.7406 20.4086C41.9145 20.4086 42.0662 20.2556 42.0662 20.0812C42.0662 19.9068 41.9143 19.7758 41.7406 19.7758C41.5882 19.7758 41.4366 19.9068 41.4366 20.0812C41.4366 20.2556 41.5885 20.4086 41.7406 20.4086ZM41.6972 20.2776H41.6102V19.9065H41.7621C41.7841 19.9065 41.8276 19.9065 41.8491 19.9286C41.8925 19.9502 41.8925 19.9723 41.8925 20.0159C41.8925 20.0596 41.8711 20.1033 41.8276 20.1033L41.9145 20.2779H41.8056L41.7621 20.1248H41.6972V20.2776V20.0593H41.7841C41.8056 20.0593 41.8056 20.0373 41.8056 20.0157C41.8056 19.9936 41.8056 19.9936 41.7841 19.972H41.6972V20.2776Z" fill="#E9B040"/>
<path fill-rule="evenodd" clip-rule="evenodd" d="M26.074 11.6581C26.0305 11.2 25.9436 10.7636 25.8566 10.3052H18.1647C18.2516 9.84699 18.382 9.41065 18.5122 8.97404H25.4874C25.3359 8.51466 25.1619 8.06312 24.9659 7.62108H19.0556C19.273 7.15886 19.5123 6.70736 19.7727 6.26812H24.2274C23.9407 5.80207 23.6213 5.35723 23.2714 4.93699H20.7289C21.1222 4.45465 21.5507 4.00241 22.0109 3.58402C19.773 1.55458 16.8177 0.28894 13.5584 0.28894C6.62696 0.28894 0.977539 5.98458 0.977539 13.0108C0.977539 20.0158 6.62696 25.7112 13.5584 25.7112C16.8177 25.7112 19.7727 24.4671 22.0109 22.4161C22.4641 22.005 22.8855 21.5599 23.2714 21.0847H20.7289C20.3811 20.6483 20.077 20.212 19.7727 19.7317H24.2274C24.5075 19.3002 24.7544 18.8479 24.9662 18.3788H19.0556C18.86 17.9424 18.6646 17.5061 18.5122 17.0474H25.4874C25.6393 16.611 25.7482 16.1531 25.8564 15.6944C25.9433 15.2581 26.0303 14.8001 26.0738 14.3415C26.1178 13.899 26.1396 13.4547 26.1392 13.0101C26.1392 12.5527 26.1175 12.0945 26.074 11.6581Z" fill="#FF0000"/>
<path fill-rule="evenodd" clip-rule="evenodd" d="M41.3496 15.9569C41.3496 15.717 41.5235 15.5426 41.7406 15.5426C41.9795 15.5426 42.1531 15.7172 42.1531 15.9569C42.1531 16.1752 41.9792 16.3716 41.7406 16.3716C41.5235 16.3716 41.3496 16.1749 41.3496 15.9569ZM41.7406 16.2622C41.9145 16.2622 42.0662 16.1312 42.0662 15.9569C42.0662 15.7825 41.9143 15.6515 41.7406 15.6515C41.5882 15.6515 41.4366 15.7825 41.4366 15.9569C41.4366 16.1312 41.5885 16.2622 41.7406 16.2622ZM41.6972 16.1312H41.6102V15.7822H41.8491C41.8925 15.8043 41.8925 15.848 41.8925 15.8916C41.8925 15.9132 41.8711 15.9569 41.8276 15.9789L41.9145 16.1315H41.8056L41.7621 16.0005H41.6972V16.1312V15.935H41.7406C41.7621 15.935 41.7841 15.935 41.7841 15.9129C41.8056 15.9129 41.8056 15.8914 41.8056 15.8693C41.8056 15.8693 41.8056 15.8477 41.7841 15.8477C41.7841 15.8256 41.7621 15.8477 41.7406 15.8477H41.6972V16.1312Z" fill="white"/>
<path fill-rule="evenodd" clip-rule="evenodd" d="M17.7311 16.6772C17.3183 16.786 17.014 16.8518 16.7099 16.8518C16.0581 16.8518 15.6668 16.437 15.6668 15.695C15.6668 15.5425 15.6885 15.3897 15.7103 15.215L15.7972 14.7135L15.8624 14.2987L16.4491 10.7201H17.7528L17.6007 11.5057H18.4264L18.2308 12.815H17.405L17.0575 14.9533C17.0357 15.0627 17.0357 15.128 17.0357 15.1716C17.0357 15.4554 17.1662 15.5643 17.492 15.5643C17.6441 15.5643 17.7743 15.5428 17.9047 15.5207L17.7311 16.6772ZM21.9466 16.6335C21.4686 16.7645 21.0341 16.8297 20.5559 16.8297C19.0783 16.8297 18.2308 16.0441 18.2308 14.4952C18.2308 12.6838 19.2305 11.3745 20.6209 11.3745C21.729 11.3745 22.4461 12.1164 22.4461 13.2727C22.4461 13.6659 22.4026 14.0367 22.2941 14.5604H19.578C19.5563 14.6477 19.5563 14.6914 19.5563 14.735C19.5563 15.346 19.969 15.6514 20.7513 15.6514C21.251 15.6514 21.6855 15.5425 22.1637 15.3244L21.9466 16.6335ZM21.1426 13.5131V13.2511C21.1426 12.8147 20.9035 12.5746 20.4907 12.5746C20.056 12.5746 19.7519 12.9018 19.6215 13.5128L21.1426 13.5131ZM7.30122 16.7424H5.95402L6.73631 11.7892L4.97635 16.7424H4.04215L3.93346 11.8111L3.1077 16.7424H1.78223L2.84685 10.3053H4.82418L4.86766 14.2771L6.19313 10.3053H8.3661L7.30122 16.7424ZM10.5826 14.4078C10.4521 14.3857 10.4086 14.3857 10.3217 14.3857C9.53941 14.3857 9.14839 14.6911 9.14839 15.1714C9.14839 15.4988 9.34403 15.7171 9.6481 15.7171C10.3 15.7171 10.5606 15.1714 10.5826 14.4078ZM11.6689 16.7424H10.4956L10.5173 16.1971C10.213 16.6114 9.80026 16.8297 9.08318 16.8297C8.43131 16.8297 7.8664 16.2408 7.8664 15.3897C7.8664 15.1498 7.90987 14.9318 7.97508 14.7135C8.1922 13.9057 8.99623 13.4042 10.2348 13.3821C10.3869 13.3821 10.6258 13.3821 10.8431 13.4042C10.8864 13.2295 10.8864 13.1638 10.8864 13.0549C10.8864 12.7056 10.604 12.5964 9.9739 12.5964C9.58288 12.5964 9.14814 12.6619 8.84407 12.7711L8.64843 12.8147L8.56148 12.8363L8.75712 11.658C9.38725 11.4615 9.84348 11.3745 10.3434 11.3745C11.5167 11.3745 12.1469 11.92 12.1469 12.9236C12.1469 13.1856 12.1686 13.3821 12.0817 13.9494L11.7776 15.826L11.7341 16.1535L11.7124 16.4154L11.6906 16.5901L11.6689 16.7424ZM28.5087 11.5491C28.8998 11.5491 29.2476 11.6583 29.7255 11.8981L29.9644 10.5015C29.834 10.436 29.7905 10.436 29.6168 10.3705L29.0739 10.2177C28.9 10.1741 28.6829 10.1522 28.4435 10.1522C27.7697 10.1522 27.3787 10.1741 26.9662 10.4142C26.7488 10.567 26.4662 10.7635 26.1619 11.1125L25.988 11.0688L24.5973 12.0507L24.6628 11.5052H23.2283L22.3814 16.7421H23.7506L24.25 13.9276C24.25 13.9276 24.4459 13.5344 24.5326 13.4039C24.7934 13.0764 25.0106 13.0764 25.2929 13.0764H25.4018C25.3562 13.409 25.3343 13.7444 25.3364 14.0801C25.3364 15.7821 26.2923 16.8515 27.7699 16.8515C28.1395 16.8515 28.4658 16.8079 28.9652 16.6769L29.2046 15.1932C28.7701 15.4331 28.3788 15.5422 28.0528 15.5422C27.249 15.5422 26.7705 14.9312 26.7705 13.9712C26.77 12.5528 27.4873 11.5491 28.5087 11.5491ZM40.0462 10.3053L39.7424 12.1383C39.4163 11.6364 39.025 11.3963 38.5036 11.3963C37.7863 11.3963 37.1129 11.8108 36.6999 12.5964V12.5749L35.8309 12.0509L35.9179 11.5054H34.462L33.6362 16.7424H34.9834L35.4399 13.9278C35.4399 13.9278 35.7874 13.5346 35.8744 13.4042C36.0918 13.1422 36.3089 13.0983 36.4828 13.0767C36.3309 13.5131 36.2439 14.0367 36.2439 14.6261C36.2439 15.9354 36.9173 16.8081 37.9167 16.8081C38.4166 16.8081 38.8077 16.6335 39.1769 16.2187L39.112 16.7424H40.3942L41.4371 10.3053H40.0462ZM38.3734 15.4988C37.9169 15.4988 37.6781 15.1498 37.6781 14.4731C37.6781 13.4473 38.1126 12.7056 38.7425 12.7056C39.2204 12.7056 39.4598 13.0767 39.4598 13.7314C39.4598 14.7787 39.0253 15.4988 38.3734 15.4988ZM32.0941 14.4078C31.9637 14.3857 31.9202 14.3857 31.8333 14.3857C31.0505 14.3857 30.6595 14.6911 30.6595 15.1714C30.6595 15.4988 30.8554 15.7171 31.1594 15.7171C31.8113 15.7171 32.0721 15.1714 32.0941 14.4078ZM33.1805 16.7424H31.9852L32.0287 16.1971C31.7246 16.6114 31.3113 16.8297 30.5948 16.8297C29.9209 16.8297 29.3345 16.2624 29.3345 15.3897C29.3345 14.1461 30.2684 13.3823 31.7461 13.3823C31.8985 13.3823 32.1371 13.3823 32.333 13.4044C32.3765 13.2298 32.3985 13.164 32.3985 13.0551C32.3985 12.7058 32.1159 12.5967 31.464 12.5967C31.0945 12.5967 30.6382 12.6622 30.3342 12.7713L30.1603 12.815L30.0733 12.8366L30.2687 11.6583C30.8991 11.4618 31.3556 11.3747 31.855 11.3747C33.0283 11.3747 33.6367 11.9202 33.6367 12.9239C33.6367 13.1859 33.6802 13.3823 33.5718 13.9497L33.2892 15.8263L33.2457 16.1537L33.2022 16.4157L33.1807 16.5903V16.7424H33.1805ZM14.5152 12.6183C14.7761 12.6183 15.1454 12.6401 15.5366 12.7056L15.7323 11.4836C15.341 11.4399 14.8196 11.3745 14.5152 11.3745C12.9944 11.3745 12.4947 12.2038 12.4947 13.1638C12.4947 13.7968 12.777 14.2548 13.5158 14.6038C14.059 14.8658 14.1459 14.9092 14.1459 15.1496C14.1459 15.4765 13.8636 15.6732 13.3419 15.6732C12.9292 15.6732 12.5379 15.6075 12.1034 15.4549L11.9512 16.6548L11.9727 16.6769L12.2336 16.7206C12.3205 16.7421 12.4292 16.7642 12.5814 16.7858C12.9072 16.8079 13.1898 16.8295 13.3637 16.8295C14.8848 16.8295 15.5149 16.2405 15.5149 15.0838C15.5149 14.3639 15.1671 13.9276 14.4935 13.6222C13.9068 13.36 13.8416 13.3168 13.8416 13.0764C13.8416 12.8366 14.1025 12.6183 14.5152 12.6183Z" fill="#1B3771"/>
<path fill-rule="evenodd" clip-rule="evenodd" d="M30.334 10.087L30.0946 11.4836C29.6167 11.2435 29.2689 11.1346 28.8778 11.1346C27.8564 11.1346 27.1396 12.1382 27.1396 13.5567C27.1396 14.5388 27.6176 15.1277 28.4219 15.1277C28.7474 15.1277 29.1387 15.0188 29.5732 14.8008L29.3343 16.2624C28.8344 16.3933 28.5086 16.4591 28.139 16.4591C26.6617 16.4591 25.7489 15.3897 25.7489 13.6661C25.7489 11.3747 27.0092 9.75977 28.8126 9.75977C29.0515 9.75977 29.2686 9.7816 29.4425 9.82526L29.9859 9.95624C30.1601 10.0217 30.2036 10.0436 30.334 10.087ZM25.9446 11.0472H25.8142C25.3582 11.0472 25.0973 11.2655 24.6843 11.8981L24.8147 11.0906H23.576L22.729 16.3278H24.0982C24.5976 13.1201 24.728 12.5746 25.3799 12.5746H25.4669C25.5973 11.9418 25.7709 11.4833 25.9883 11.0688L25.9446 11.0472ZM18.079 16.2624C17.7097 16.3933 17.4054 16.437 17.1013 16.437C16.4059 16.437 16.0147 16.0443 16.0147 15.2808C16.0147 15.1498 16.0364 14.9754 16.0581 14.8223L16.1451 14.2987L16.2103 13.8844L16.797 10.3053H18.1442L17.992 11.0909H18.6874L18.5135 12.3784H17.8181L17.4488 14.5606C17.4271 14.6479 17.4271 14.7137 17.4271 14.7789C17.4271 15.0409 17.5575 15.15 17.8833 15.15C18.0355 15.15 18.1657 15.15 18.2526 15.1064L18.079 16.2624ZM12.8423 12.7492C12.8423 13.4041 13.1464 13.8621 13.8634 14.2113C14.4284 14.4733 14.5153 14.5604 14.5153 14.7787C14.5153 15.1061 14.2762 15.2587 13.733 15.2587C13.3203 15.2587 12.9507 15.1934 12.5162 15.0625L12.3206 16.2624L12.3858 16.2844L12.6249 16.3281C12.7116 16.3497 12.8206 16.3718 12.9942 16.3718C13.2983 16.4154 13.5591 16.4154 13.733 16.4154C15.1669 16.4154 15.8408 15.8697 15.8408 14.6698C15.8408 13.9494 15.5584 13.5346 14.8848 13.2077C14.2982 12.9457 14.233 12.8805 14.233 12.6403C14.233 12.3568 14.4721 12.2258 14.9066 12.2258C15.1674 12.2258 15.5367 12.2476 15.8845 12.2913L16.0799 11.0912C15.7323 11.0257 15.1892 10.982 14.8848 10.982C13.3637 10.9817 12.8206 11.7892 12.8423 12.7492ZM40.7421 16.3281H39.4599L39.5253 15.826C39.1558 16.2187 38.7645 16.3933 38.2646 16.3933C37.2652 16.3933 36.6133 15.5427 36.6133 14.2334C36.6133 12.4875 37.6347 11.0036 38.8295 11.0036C39.3729 11.0036 39.7639 11.2437 40.1337 11.7237L40.4378 9.89075H41.785L40.7421 16.3281ZM38.7428 15.1061C39.3732 15.1061 39.8077 14.3641 39.8077 13.3384C39.8077 12.6619 39.5683 12.3126 39.0903 12.3126C38.4819 12.3126 38.026 13.0328 38.026 14.0585C38.026 14.7571 38.2648 15.1061 38.7428 15.1061ZM22.2508 16.2187C21.7725 16.3718 21.338 16.437 20.8383 16.437C19.3172 16.437 18.5349 15.6298 18.5349 14.0804C18.5349 12.291 19.5346 10.9599 20.9035 10.9599C22.0334 10.9599 22.7502 11.7019 22.7502 12.8584C22.7502 13.2513 22.7067 13.6224 22.5763 14.1677H19.8824C19.8607 14.2334 19.8607 14.2771 19.8607 14.3207C19.8607 14.9317 20.2737 15.2371 21.0557 15.2371C21.5554 15.2371 21.9899 15.1498 22.4681 14.9096L22.2508 16.2187ZM21.4902 13.0983V12.8365C21.4902 12.4002 21.2511 12.1601 20.8383 12.1601C20.4038 12.1601 20.0995 12.4875 19.9691 13.0983H21.4902ZM7.6491 16.3281H6.30189L7.08418 11.3744L5.32422 16.3281H4.38977L4.28108 11.4181L3.45557 16.3281H2.19531L3.25993 9.89075H5.21553L5.28075 13.8841L6.58422 9.89075H8.71372L7.6491 16.3281ZM11.0171 13.993C10.8867 13.993 10.8215 13.9715 10.7128 13.9715C9.95224 13.9715 9.56122 14.255 9.56122 14.7787C9.56122 15.1061 9.73512 15.3023 10.0392 15.3023C10.6041 15.3023 10.9954 14.7787 11.0171 13.993ZM12.0165 16.3281H10.8864L10.9082 15.7823C10.5604 16.2187 10.1041 16.4154 9.47402 16.4154C8.7352 16.4154 8.2355 15.8481 8.2355 14.997C8.2355 13.7098 9.10448 12.9678 10.6256 12.9678C10.7778 12.9678 10.9734 12.9896 11.1905 13.0112C11.234 12.8368 11.234 12.7713 11.234 12.684C11.234 12.335 10.9949 12.204 10.3647 12.204C9.97372 12.204 9.53897 12.2476 9.23491 12.335L9.03927 12.4005L8.90884 12.4223L9.10448 11.244C9.77809 11.0475 10.2343 10.982 10.7343 10.982C11.9076 10.982 12.5377 11.5057 12.5377 12.5093C12.5377 12.7713 12.516 12.9678 12.429 13.5569L12.1247 15.412L12.0812 15.7389L12.0595 16.0009L12.0378 16.1976L12.0165 16.3281ZM32.5287 13.993C32.3763 13.993 32.3113 13.9715 32.2246 13.9715C31.4423 13.9715 31.0508 14.255 31.0508 14.7787C31.0508 15.1061 31.2467 15.3023 31.5508 15.3023C32.0942 15.3023 32.5067 14.7787 32.5287 13.993ZM33.5281 16.3281H32.3983L32.4198 15.7823C32.0722 16.2187 31.616 16.4154 30.9859 16.4154C30.247 16.4154 29.7471 15.8481 29.7471 14.997C29.7471 13.7098 30.6161 12.9678 32.1372 12.9678C32.2896 12.9678 32.4852 12.9896 32.6806 13.0112C32.7241 12.8368 32.7461 12.7713 32.7461 12.684C32.7461 12.335 32.5067 12.204 31.8771 12.204C31.4856 12.204 31.0296 12.2476 30.7253 12.335L30.5514 12.4005L30.4209 12.4223L30.6163 11.244C31.2902 11.0475 31.7462 10.982 32.2461 10.982C33.4194 10.982 34.0278 11.5057 34.0278 12.5093C34.0278 12.7713 34.0278 12.9678 33.9194 13.5569L33.6368 15.412L33.5933 15.7389L33.5499 16.0009L33.5284 16.1976L33.5281 16.3281ZM37.1785 11.0472H37.048C36.5921 11.0472 36.3312 11.2655 35.9182 11.8981L36.0486 11.0906H34.8099L33.9841 16.3278H35.3313C35.8313 13.1201 35.9617 12.5746 36.6135 12.5746H36.7005C36.8309 11.9418 37.0046 11.4833 37.2219 11.0688L37.1785 11.0472Z" fill="white"/>
</svg>
