<svg width="12" height="12" viewBox="0 0 12 12" fill="none" xmlns="http://www.w3.org/2000/svg">
<path d="M2.11111 11H9.88889C10.5025 11 11 10.5025 11 9.88889V2.11111C11 1.49746 10.5025 1 9.88889 1H2.11111C1.49746 1 1 1.49746 1 2.11111V9.88889C1 10.5025 1.49746 11 2.11111 11ZM2.11111 11L8.22222 4.88889L11 7.66667M4.88889 4.05556C4.88889 4.51579 4.51579 4.88889 4.05556 4.88889C3.59532 4.88889 3.22222 4.51579 3.22222 4.05556C3.22222 3.59532 3.59532 3.22222 4.05556 3.22222C4.51579 3.22222 4.88889 3.59532 4.88889 4.05556Z" stroke="#00BEEC" stroke-width="1.1" stroke-linecap="round" stroke-linejoin="round"/>
</svg>
