<svg width="26" height="26" viewBox="0 0 26 26" fill="none" xmlns="http://www.w3.org/2000/svg">
<path d="M12.531 2.91511C10.4686 2.9156 8.4609 3.57882 6.80403 4.80698C5.14715 6.03513 3.92879 7.7632 3.32861 9.73637C2.72843 11.7095 2.77819 13.8233 3.47057 15.7661C4.16295 17.7088 5.46128 19.3776 7.17412 20.5264C8.88695 21.6753 10.9236 22.2433 12.9838 22.1467C15.0439 22.0501 17.0185 21.2941 18.6164 19.9901C20.2143 18.6861 21.3508 16.9031 21.8584 14.9041C22.366 12.9051 22.2178 10.7959 21.4357 8.88757C21.3238 8.61513 21.3247 8.30941 21.4382 8.03765C21.5518 7.7659 21.7686 7.55037 22.0411 7.43849C22.3135 7.32661 22.6192 7.32754 22.891 7.44107C23.1627 7.55461 23.3783 7.77144 23.4901 8.04388C24.5272 10.5753 24.6558 13.3877 23.8541 16.0032C23.0524 18.6187 21.3699 20.8759 19.0923 22.3914C16.8148 23.9068 14.0829 24.5869 11.3607 24.3161C8.6385 24.0454 6.09403 22.8404 4.15966 20.906C2.22529 18.9717 1.02034 16.4272 0.749573 13.705C0.478801 10.9828 1.15891 8.25088 2.67433 5.97336C4.18975 3.69584 6.44699 2.01328 9.0625 1.21157C11.678 0.409867 14.4904 0.538484 17.0218 1.57557C17.1568 1.63087 17.2796 1.71221 17.3832 1.81497C17.4867 1.91772 17.569 2.03986 17.6254 2.17442C17.6817 2.30898 17.711 2.45332 17.7116 2.5992C17.7122 2.74509 17.684 2.88965 17.6287 3.02465C17.5734 3.15964 17.492 3.28242 17.3893 3.38598C17.2865 3.48954 17.1644 3.57184 17.0298 3.62819C16.8953 3.68455 16.7509 3.71384 16.605 3.71441C16.4592 3.71498 16.3146 3.68681 16.1796 3.63151C15.0216 3.15774 13.7822 2.91439 12.531 2.91511ZM21.8264 3.24075C22.0343 3.4489 22.1511 3.73105 22.1511 4.02524C22.1511 4.31942 22.0343 4.60157 21.8264 4.80972L15.8125 10.8251C16.2215 11.609 16.3363 12.5134 16.1362 13.3746C15.936 14.2358 15.4341 14.9968 14.7213 15.52C14.0085 16.0431 13.132 16.2938 12.2504 16.2265C11.3688 16.1593 10.5404 15.7786 9.91524 15.1534C9.29005 14.5282 8.90937 13.6998 8.84213 12.8183C8.77489 11.9367 9.02553 11.0601 9.54867 10.3474C10.0718 9.63458 10.8329 9.13267 11.6941 8.9325C12.5553 8.73234 13.4597 8.84714 14.2436 9.25613L20.2575 3.24075C20.4656 3.03286 20.7478 2.91609 21.0419 2.91609C21.3361 2.91609 21.6183 3.03286 21.8264 3.24075ZM11.0508 12.5362C11.0508 12.9287 11.2068 13.3052 11.4844 13.5828C11.762 13.8604 12.1384 14.0163 12.531 14.0163C12.9236 14.0163 13.3001 13.8604 13.5776 13.5828C13.8552 13.3052 14.0112 12.9287 14.0112 12.5362C14.0112 12.1436 13.8552 11.7671 13.5776 11.4895C13.3001 11.212 12.9236 11.056 12.531 11.056C12.1384 11.056 11.762 11.212 11.4844 11.4895C11.2068 11.7671 11.0508 12.1436 11.0508 12.5362Z" fill="#00BEEC"/>
</svg>
