<svg width="24" height="24" viewBox="0 0 24 24" fill="none" xmlns="http://www.w3.org/2000/svg">
<path d="M15.587 11.4101L12.5878 8.41012C11.808 7.63012 11.808 6.36012 12.5878 5.58012L15.587 2.58012C16.3668 1.80012 17.6364 1.80012 18.4162 2.58012L21.4155 5.58012C22.1952 6.36012 22.1952 7.63012 21.4155 8.41012L18.4162 11.4101C17.6264 12.1901 16.3568 12.1901 15.587 11.4101Z" stroke="black" stroke-width="1.5" stroke-miterlimit="10" stroke-linecap="round" stroke-linejoin="round"/>
<path d="M11.9976 21H4.99947C3.89976 21 3 20.1 3 19V12H11.9976V21Z" stroke="black" stroke-width="1.5" stroke-miterlimit="10" stroke-linecap="round" stroke-linejoin="round"/>
<path d="M11.9976 12H3V5C3 3.9 3.89976 3 4.99947 3H11.9976V12Z" stroke="black" stroke-width="1.5" stroke-miterlimit="10" stroke-linecap="round" stroke-linejoin="round"/>
<path d="M18.9962 21H11.998V12H20.9957V19C20.9957 20.1 20.0959 21 18.9962 21Z" stroke="black" stroke-width="1.5" stroke-miterlimit="10" stroke-linecap="round" stroke-linejoin="round"/>
</svg>
