<svg width="20" height="20" viewBox="0 0 20 20" fill="none" xmlns="http://www.w3.org/2000/svg">
<g clip-path="url(#clip0_345_649)">
<path d="M4.25861 12.6125C4.25861 13.7578 3.32454 14.6933 2.17907 14.6933C1.03361 14.6933 0.0984497 13.7578 0.0984497 12.6125C0.0984497 11.4672 1.03392 10.5317 2.17923 10.5317H4.25876L4.25861 12.6125ZM5.30689 12.6125C5.30689 11.4672 6.24236 10.5317 7.38767 10.5317C8.53298 10.5317 9.46845 11.4671 9.46845 12.6125V17.8211C9.46845 18.9664 8.53314 19.9019 7.38767 19.9019C6.24236 19.9019 5.30689 18.9664 5.30689 17.8211V12.6125Z" fill="#DE1C59"/>
<path d="M7.38767 4.25879C6.24236 4.25879 5.30689 3.32473 5.30689 2.17926C5.30689 1.03379 6.24236 0.0986328 7.38767 0.0986328C8.53298 0.0986328 9.46845 1.0341 9.46845 2.17941V4.25895L7.38767 4.25879ZM7.38767 5.30707C8.53298 5.30707 9.46845 6.24254 9.46845 7.38785C9.46845 8.53316 8.53314 9.46863 7.38767 9.46863H2.17907C1.03376 9.46863 0.0984497 8.53332 0.0984497 7.38785C0.0984497 6.24254 1.03392 5.30707 2.17923 5.30707H7.38767Z" fill="#35C5F0"/>
<path d="M15.7414 7.38785C15.7414 6.24254 16.6755 5.30707 17.8209 5.30707C18.9664 5.30707 19.9017 6.24254 19.9017 7.38785C19.9017 8.53316 18.9662 9.46863 17.8209 9.46863H15.7414V7.38785ZM14.6931 7.38785C14.6931 8.53316 13.7576 9.46863 12.6123 9.46863C11.467 9.46863 10.5316 8.53332 10.5316 7.38785V2.17926C10.5316 1.03395 11.4669 0.0986328 12.6123 0.0986328C13.7576 0.0986328 14.6931 1.0341 14.6931 2.17941V7.38785Z" fill="#2EB57D"/>
<path d="M12.6123 15.7416C13.7576 15.7416 14.6931 16.6756 14.6931 17.8211C14.6931 18.9666 13.7576 19.9019 12.6123 19.9019C11.467 19.9019 10.5316 18.9664 10.5316 17.8211V15.7416H12.6123ZM12.6123 14.6933C11.467 14.6933 10.5316 13.7578 10.5316 12.6125C10.5316 11.4672 11.4669 10.5317 12.6123 10.5317H17.8209C18.9662 10.5317 19.9017 11.4671 19.9017 12.6125C19.9017 13.7578 18.9662 14.6933 17.8209 14.6933H12.6123Z" fill="#EBB02E"/>
</g>
<defs>
<clipPath id="clip0_345_649">
<rect width="20" height="20" fill="white"/>
</clipPath>
</defs>
</svg>
