<svg width="19" height="20" viewBox="0 0 19 20" fill="none" xmlns="http://www.w3.org/2000/svg">
<g clip-path="url(#clip0_70966_2)">
<path d="M9.50012 1.37767V18.7943" stroke="#00BEEC" stroke-width="1.3" stroke-linecap="round" stroke-linejoin="round"/>
<path d="M13.4585 4.54436H7.52096C6.78608 4.54436 6.08131 4.83628 5.56168 5.35592C5.04205 5.87555 4.75012 6.58032 4.75012 7.31519C4.75012 8.05006 5.04205 8.75483 5.56168 9.27447C6.08131 9.7941 6.78608 10.086 7.52096 10.086H11.4793C12.2142 10.086 12.9189 10.378 13.4386 10.8976C13.9582 11.4172 14.2501 12.122 14.2501 12.8569C14.2501 13.5917 13.9582 14.2965 13.4386 14.8161C12.9189 15.3358 12.2142 15.6277 11.4793 15.6277H4.75012" stroke="#00BEEC" stroke-width="1.3" stroke-linecap="round" stroke-linejoin="round"/>
</g>
<defs>
<clipPath id="clip0_70966_2">
<rect width="19" height="19" fill="white" transform="translate(0 0.585999)"/>
</clipPath>
</defs>
</svg>
