<svg width="26" height="26" viewBox="0 0 26 26" fill="none" xmlns="http://www.w3.org/2000/svg">
<g clip-path="url(#clip0_417_10344)">
<path d="M0 13L5.02734 7.97267L6.63781 9.58314L3.22096 13L6.63781 16.4169L5.02734 18.0273L0 13ZM7.97267 5.02734L13 0L18.0273 5.02734L16.4169 6.63781L13 3.22096L9.58314 6.63781L7.97267 5.02734ZM9.58314 19.3622L13 22.779L16.4169 19.3622L18.0273 20.9727L13 26L7.97267 20.9727L9.58314 19.3622ZM11.8588 14.1412V11.8588H14.1412V14.1412H11.8588ZM19.3622 16.4169L22.779 13L19.3622 9.58314L20.9727 7.97267L26 13L20.9727 18.0273L19.3622 16.4169Z" fill="#00BEEC"/>
</g>
<defs>
<clipPath id="clip0_417_10344">
<rect width="26" height="26" fill="white"/>
</clipPath>
</defs>
</svg>
