<svg width="19" height="19" viewBox="0 0 19 19" fill="none" xmlns="http://www.w3.org/2000/svg">
<path fill-rule="evenodd" clip-rule="evenodd" d="M6.5 5.75C6.5 4.95435 6.81607 4.19129 7.37868 3.62868C7.94129 3.06607 8.70435 2.75 9.5 2.75C10.2956 2.75 11.0587 3.06607 11.6213 3.62868C12.1839 4.19129 12.5 4.95435 12.5 5.75C12.5 6.54565 12.1839 7.30871 11.6213 7.87132C11.0587 8.43393 10.2956 8.75 9.5 8.75C8.70435 8.75 7.94129 8.43393 7.37868 7.87132C6.81607 7.30871 6.5 6.54565 6.5 5.75ZM6.5 10.25C5.50544 10.25 4.55161 10.6451 3.84835 11.3483C3.14509 12.0516 2.75 13.0054 2.75 14C2.75 14.5967 2.98705 15.169 3.40901 15.591C3.83097 16.0129 4.40326 16.25 5 16.25H14C14.5967 16.25 15.169 16.0129 15.591 15.591C16.0129 15.169 16.25 14.5967 16.25 14C16.25 13.0054 15.8549 12.0516 15.1517 11.3483C14.4484 10.6451 13.4946 10.25 12.5 10.25H6.5Z" fill="#00BEEC"/>
</svg>
