<svg width="18" height="19" viewBox="0 0 18 19" fill="none" xmlns="http://www.w3.org/2000/svg">
<path d="M11.625 8C12.2463 8 12.75 7.49632 12.75 6.875C12.75 6.25368 12.2463 5.75 11.625 5.75C11.0037 5.75 10.5 6.25368 10.5 6.875C10.5 7.49632 11.0037 8 11.625 8Z" fill="white"/>
<path d="M3.75 12.5L7.635 8.261C7.52475 7.90625 7.5 7.64225 7.5 7.25C7.5 6.50832 7.71993 5.7833 8.13199 5.16661C8.54404 4.54993 9.12971 4.06928 9.81494 3.78545C10.5002 3.50162 11.2542 3.42736 11.9816 3.57206C12.709 3.71675 13.3772 4.0739 13.9017 4.59835C14.4261 5.1228 14.7833 5.79098 14.9279 6.51841C15.0726 7.24584 14.9984 7.99984 14.7145 8.68506C14.4307 9.37029 13.9501 9.95596 13.3334 10.368C12.7167 10.7801 11.9917 11 11.25 11C10.8577 11 10.599 10.9925 10.2435 10.8815L9 12.125H7.5V13.625H6V15.125H3.75V12.5Z" stroke="white" stroke-width="1.5" stroke-linecap="round" stroke-linejoin="round"/>
</svg>
