<svg width="19" height="19" viewBox="0 0 19 19" fill="none" xmlns="http://www.w3.org/2000/svg">
<path d="M9.5 11.75C10.7426 11.75 11.75 10.7426 11.75 9.5C11.75 8.25736 10.7426 7.25 9.5 7.25C8.25736 7.25 7.25 8.25736 7.25 9.5C7.25 10.7426 8.25736 11.75 9.5 11.75Z" stroke="white" stroke-width="1.5"/>
<path d="M10.8237 2.114C10.5485 2 10.199 2 9.49997 2C8.80097 2 8.45147 2 8.17622 2.114C7.99411 2.18938 7.82864 2.29992 7.68926 2.43929C7.54989 2.57866 7.43936 2.74414 7.36397 2.92625C7.29497 3.0935 7.26722 3.28925 7.25672 3.5735C7.25184 3.77895 7.19492 3.9798 7.0913 4.15727C6.98768 4.33473 6.84074 4.48302 6.66422 4.58825C6.48483 4.68858 6.28291 4.74175 6.07737 4.7428C5.87183 4.74385 5.66938 4.69274 5.48897 4.59425C5.23697 4.46075 5.05472 4.38725 4.87397 4.36325C4.47971 4.3114 4.081 4.41823 3.76547 4.66025C3.52997 4.8425 3.35447 5.14475 3.00497 5.75C2.65547 6.35525 2.47997 6.6575 2.44172 6.95375C2.41595 7.14909 2.42891 7.34759 2.47987 7.53792C2.53083 7.72825 2.61879 7.90667 2.73872 8.063C2.84972 8.207 3.00497 8.32775 3.24572 8.47925C3.60047 8.702 3.82847 9.0815 3.82847 9.5C3.82847 9.9185 3.60047 10.298 3.24572 10.52C3.00497 10.6722 2.84897 10.793 2.73872 10.937C2.61879 11.0933 2.53083 11.2718 2.47987 11.4621C2.42891 11.6524 2.41595 11.8509 2.44172 12.0463C2.48072 12.3418 2.65547 12.6448 3.00422 13.25C3.35447 13.8552 3.52922 14.1575 3.76547 14.3397C3.9218 14.4597 4.10022 14.5476 4.29055 14.5986C4.48088 14.6496 4.67938 14.6625 4.87472 14.6368C5.05472 14.6128 5.23697 14.5393 5.48897 14.4058C5.66938 14.3073 5.87183 14.2561 6.07737 14.2572C6.28291 14.2582 6.48483 14.3114 6.66422 14.4117C7.02647 14.6217 7.24172 15.008 7.25672 15.4265C7.26722 15.7115 7.29422 15.9065 7.36397 16.0737C7.43936 16.2559 7.54989 16.4213 7.68926 16.5607C7.82864 16.7001 7.99411 16.8106 8.17622 16.886C8.45147 17 8.80097 17 9.49997 17C10.199 17 10.5485 17 10.8237 16.886C11.0058 16.8106 11.1713 16.7001 11.3107 16.5607C11.45 16.4213 11.5606 16.2559 11.636 16.0737C11.705 15.9065 11.7327 15.7115 11.7432 15.4265C11.7582 15.008 11.9735 14.621 12.3357 14.4117C12.5151 14.3114 12.717 14.2582 12.9226 14.2572C13.1281 14.2561 13.3306 14.3073 13.511 14.4058C13.763 14.5393 13.9452 14.6128 14.1252 14.6368C14.3206 14.6625 14.5191 14.6496 14.7094 14.5986C14.8997 14.5476 15.0781 14.4597 15.2345 14.3397C15.4707 14.1582 15.6455 13.8552 15.995 13.25C16.3445 12.6448 16.52 12.3425 16.5582 12.0463C16.584 11.8509 16.571 11.6524 16.5201 11.4621C16.4691 11.2718 16.3812 11.0933 16.2612 10.937C16.1502 10.793 15.995 10.6723 15.7542 10.5208C15.5787 10.4138 15.4331 10.2641 15.3312 10.0855C15.2293 9.90701 15.1743 9.70555 15.1715 9.5C15.1715 9.0815 15.3995 8.702 15.7542 8.48C15.995 8.32775 16.151 8.207 16.2612 8.063C16.3812 7.90667 16.4691 7.72825 16.5201 7.53792C16.571 7.34759 16.584 7.14909 16.5582 6.95375C16.5192 6.65825 16.3445 6.35525 15.9957 5.75C15.6455 5.14475 15.4707 4.8425 15.2345 4.66025C15.0781 4.54032 14.8997 4.45236 14.7094 4.4014C14.5191 4.35044 14.3206 4.33748 14.1252 4.36325C13.9452 4.38725 13.763 4.46075 13.5102 4.59425C13.3299 4.69261 13.1276 4.74365 12.9222 4.7426C12.7168 4.74155 12.515 4.68844 12.3357 4.58825C12.1592 4.48302 12.0123 4.33473 11.9086 4.15727C11.805 3.9798 11.7481 3.77895 11.7432 3.5735C11.7327 3.2885 11.7057 3.0935 11.636 2.92625C11.5606 2.74414 11.45 2.57866 11.3107 2.43929C11.1713 2.29992 11.0058 2.18938 10.8237 2.114Z" stroke="white" stroke-width="1.5"/>
</svg>
