<svg width="19" height="19" viewBox="0 0 19 19" fill="none" xmlns="http://www.w3.org/2000/svg">
<g clip-path="url(#clip0_417_9557)">
<path d="M11 9.5C11 8.675 10.325 8 9.5 8C8.675 8 8 8.675 8 9.5C8 10.325 8.675 11 9.5 11C10.325 11 11 10.325 11 9.5ZM9.5 2.75C7.70979 2.75 5.9929 3.46116 4.72703 4.72703C3.46116 5.9929 2.75 7.70979 2.75 9.5H0.5L3.5 12.5L6.5 9.5H4.25C4.25 6.5975 6.5975 4.25 9.5 4.25C12.4025 4.25 14.75 6.5975 14.75 9.5C14.751 10.4643 14.4862 11.4103 13.9847 12.234C13.4832 13.0576 12.7643 13.7271 11.9071 14.1689C11.0499 14.6107 10.0875 14.8076 9.1257 14.7382C8.16387 14.6687 7.23979 14.3354 6.455 13.775L5.39 14.855C6.24098 15.508 7.23534 15.9488 8.29068 16.1409C9.34601 16.333 10.4319 16.2708 11.4584 15.9594C12.4849 15.6481 13.4224 15.0966 14.1933 14.3507C14.9641 13.6048 15.5461 12.6859 15.8909 11.6701C16.2358 10.6544 16.3336 9.57114 16.1763 8.51007C16.019 7.44901 15.6111 6.4407 14.9864 5.56874C14.3616 4.69677 13.5381 3.98625 12.584 3.49605C11.6299 3.00586 10.5727 2.75011 9.5 2.75Z" fill="white"/>
</g>
<defs>
<clipPath id="clip0_417_9557">
<rect width="18" height="18" fill="white" transform="translate(0.5 0.5)"/>
</clipPath>
</defs>
</svg>
