<svg width="20" height="21" viewBox="0 0 20 21" fill="none" xmlns="http://www.w3.org/2000/svg">
<path d="M1 19.6365V17.6365C1 16.5756 1.42143 15.5582 2.17157 14.808C2.92172 14.0579 3.93913 13.6365 5 13.6365H9C10.0609 13.6365 11.0783 14.0579 11.8284 14.808C12.5786 15.5582 13 16.5756 13 17.6365V19.6365M14 1.76647C14.8604 1.98678 15.623 2.48718 16.1676 3.18879C16.7122 3.89039 17.0078 4.7533 17.0078 5.64147C17.0078 6.52965 16.7122 7.39255 16.1676 8.09416C15.623 8.79577 14.8604 9.29617 14 9.51647M19 19.6365V17.6365C18.9949 16.7536 18.6979 15.8973 18.1553 15.2009C17.6126 14.5045 16.8548 14.0072 16 13.7865M3 5.63647C3 6.69734 3.42143 7.71476 4.17157 8.4649C4.92172 9.21505 5.93913 9.63647 7 9.63647C8.06087 9.63647 9.07828 9.21505 9.82843 8.4649C10.5786 7.71476 11 6.69734 11 5.63647C11 4.57561 10.5786 3.55819 9.82843 2.80805C9.07828 2.0579 8.06087 1.63647 7 1.63647C5.93913 1.63647 4.92172 2.0579 4.17157 2.80805C3.42143 3.55819 3 4.57561 3 5.63647Z" stroke="white" stroke-width="2" stroke-linecap="round" stroke-linejoin="round"/>
</svg>
