<svg width="40" height="40" viewBox="0 0 40 40" fill="none" xmlns="http://www.w3.org/2000/svg">
<path d="M9 37V33.2222C9 31.2184 9.79603 29.2966 11.213 27.8796C12.6299 26.4627 14.5517 25.6667 16.5556 25.6667H24.1111C26.115 25.6667 28.0368 26.4627 29.4537 27.8796C30.8706 29.2966 31.6667 31.2184 31.6667 33.2222V37M12.7778 10.5556C12.7778 12.5594 13.5738 14.4812 14.9907 15.8981C16.4077 17.3151 18.3295 18.1111 20.3333 18.1111C22.3372 18.1111 24.259 17.3151 25.6759 15.8981C27.0929 14.4812 27.8889 12.5594 27.8889 10.5556C27.8889 8.5517 27.0929 6.62991 25.6759 5.21297C24.259 3.79603 22.3372 3 20.3333 3C18.3295 3 16.4077 3.79603 14.9907 5.21297C13.5738 6.62991 12.7778 8.5517 12.7778 10.5556Z" stroke="#00BEEC" stroke-width="3" stroke-linecap="round" stroke-linejoin="round"/>
</svg>
