<svg width="15" height="16" viewBox="0 0 15 16" fill="none" xmlns="http://www.w3.org/2000/svg">
<path d="M1.19336 12.7956C1.19336 11.9487 1.52979 11.1365 2.12863 10.5377C2.72747 9.93884 3.53967 9.60242 4.38657 9.60242H10.773C11.6199 9.60242 12.4321 9.93884 13.0309 10.5377C13.6298 11.1365 13.9662 11.9487 13.9662 12.7956C13.9662 13.2191 13.798 13.6252 13.4986 13.9246C13.1991 14.224 12.793 14.3922 12.3696 14.3922H2.78996C2.36652 14.3922 1.96041 14.224 1.66099 13.9246C1.36157 13.6252 1.19336 13.2191 1.19336 12.7956Z" stroke="#00BEEC" stroke-width="1.3" stroke-linejoin="round"/>
<path d="M7.57972 6.40941C8.90239 6.40941 9.97462 5.33717 9.97462 4.0145C9.97462 2.69183 8.90239 1.6196 7.57972 1.6196C6.25705 1.6196 5.18481 2.69183 5.18481 4.0145C5.18481 5.33717 6.25705 6.40941 7.57972 6.40941Z" stroke="#00BEEC" stroke-width="1.3"/>
</svg>
