<svg width="54" height="18" viewBox="0 0 54 18" fill="none" xmlns="http://www.w3.org/2000/svg">
<path d="M35.1387 0.709106C31.3203 0.709106 27.908 2.59256 27.908 6.07237C27.908 10.063 33.9599 10.3386 33.9599 12.3435C33.9599 13.1876 32.9433 13.9433 31.2071 13.9433C28.7431 13.9433 26.9014 12.8874 26.9014 12.8874L26.1134 16.3989C26.1134 16.3989 28.235 17.2908 31.0516 17.2908C35.2264 17.2908 38.5114 15.3148 38.5114 11.7756C38.5114 7.5587 32.4344 7.29124 32.4344 5.43049C32.4344 4.76913 33.2688 4.04461 35.0001 4.04461C36.9534 4.04461 38.5471 4.81252 38.5471 4.81252L39.3183 1.42102C39.3183 1.42102 37.5843 0.709106 35.1387 0.709106ZM0.203811 0.965093L0.111328 1.47701C0.111328 1.47701 1.71777 1.75677 3.1646 2.3149C5.0275 2.95484 5.16025 3.32742 5.47398 4.48456L8.89282 17.0268H13.4759L20.5365 0.965093H15.9639L11.4271 11.8855L9.57584 2.62883C9.40605 1.56943 8.54604 0.965093 7.49336 0.965093H0.203811ZM22.3752 0.965093L18.7882 17.0268H23.1485L26.7229 0.965042H22.3752V0.965093ZM46.6941 0.965093C45.6426 0.965093 45.0856 1.50078 44.6768 2.43687L38.2887 17.0268H42.8612L43.7459 14.5951H49.3165L49.8545 17.0268H53.8891L50.3693 0.965093H46.6941ZM47.2888 5.30446L48.6441 11.3316H45.013L47.2888 5.30446Z" fill="white"/>
</svg>
