<svg width="29" height="28" viewBox="0 0 29 28" fill="none" xmlns="http://www.w3.org/2000/svg">
<path d="M3.67915 24.5C3.46527 24.5 3.27082 24.4467 3.09582 24.3402C2.92082 24.2336 2.78471 24.0924 2.68749 23.9167C2.59027 23.7409 2.53699 23.5511 2.52765 23.3473C2.51832 23.1436 2.5716 22.9444 2.68749 22.75L13.4792 4.08333C13.5958 3.88889 13.7467 3.74306 13.9318 3.64583C14.1169 3.54861 14.3063 3.5 14.5 3.5C14.6937 3.5 14.8834 3.54861 15.0693 3.64583C15.2552 3.74306 15.4057 3.88889 15.5208 4.08333L26.3125 22.75C26.4292 22.9444 26.4828 23.1439 26.4735 23.3485C26.4642 23.5531 26.4105 23.7424 26.3125 23.9167C26.2145 24.0909 26.0784 24.2321 25.9042 24.3402C25.7299 24.4483 25.5355 24.5016 25.3208 24.5H3.67915ZM14.5 21C14.8305 21 15.1078 20.888 15.3318 20.664C15.5558 20.44 15.6674 20.1631 15.6667 19.8333C15.6659 19.5036 15.5539 19.2267 15.3307 19.0027C15.1074 18.7787 14.8305 18.6667 14.5 18.6667C14.1694 18.6667 13.8925 18.7787 13.6693 19.0027C13.4461 19.2267 13.3341 19.5036 13.3333 19.8333C13.3325 20.1631 13.4445 20.4404 13.6693 20.6652C13.8941 20.8899 14.171 21.0016 14.5 21ZM14.5 17.5C14.8305 17.5 15.1078 17.388 15.3318 17.164C15.5558 16.94 15.6674 16.6631 15.6667 16.3333V12.8333C15.6667 12.5028 15.5547 12.2259 15.3307 12.0027C15.1067 11.7794 14.8298 11.6674 14.5 11.6667C14.1702 11.6659 13.8933 11.7779 13.6693 12.0027C13.4453 12.2274 13.3333 12.5043 13.3333 12.8333V16.3333C13.3333 16.6639 13.4453 16.9412 13.6693 17.1652C13.8933 17.3892 14.1702 17.5008 14.5 17.5Z" fill="white"/>
</svg>
