<svg width="26" height="26" viewBox="0 0 26 26" fill="none" xmlns="http://www.w3.org/2000/svg">
<path d="M3.89951 9.75006H22.0995M3.89951 16.2501H22.0995M3.24951 13.0001C3.24951 14.2804 3.5017 15.5483 3.99169 16.7312C4.48167 17.9141 5.19985 18.989 6.10522 19.8944C7.01059 20.7997 8.08542 21.5179 9.26835 22.0079C10.4513 22.4979 11.7191 22.7501 12.9995 22.7501C14.2799 22.7501 15.5478 22.4979 16.7307 22.0079C17.9136 21.5179 18.9884 20.7997 19.8938 19.8944C20.7992 18.989 21.5174 17.9141 22.0073 16.7312C22.4973 15.5483 22.7495 14.2804 22.7495 13.0001C22.7495 10.4142 21.7223 7.93425 19.8938 6.10577C18.0653 4.27729 15.5854 3.25006 12.9995 3.25006C10.4137 3.25006 7.9337 4.27729 6.10522 6.10577C4.27674 7.93425 3.24951 10.4142 3.24951 13.0001Z" stroke="#00BEEC" stroke-width="2.11452" stroke-linecap="round" stroke-linejoin="round"/>
<path d="M12.4586 3.25006C10.6336 6.17464 9.66602 9.55275 9.66602 13.0001C9.66602 16.4474 10.6336 19.8255 12.4586 22.7501M13.542 3.25006C15.367 6.17464 16.3346 9.55275 16.3346 13.0001C16.3346 16.4474 15.367 19.8255 13.542 22.7501" stroke="#00BEEC" stroke-width="2.11452" stroke-linecap="round" stroke-linejoin="round"/>
</svg>
